<svg width="34" height="15" viewBox="0 0 34 15" fill="none" xmlns="http://www.w3.org/2000/svg">
<path d="M34 7.60738C34 7.15799 33.8003 6.72935 33.4498 6.42997L31.5022 4.76437L32.009 2.5042C32.034 2.39469 32.0463 2.28404 32.0463 2.17346C32.0463 1.70121 31.8237 1.24654 31.4299 0.942844C31.1306 0.712592 30.7629 0.593435 30.3929 0.593435C30.1615 0.593435 29.9279 0.640286 29.7104 0.734367L29.7015 0.73862L23.6501 3.51573C23.1867 2.81 22.6032 2.18298 21.9278 1.66293C20.5822 0.623209 18.8626 0 17.0002 0C15.1188 0 13.3837 0.636032 12.0325 1.69327C11.3694 2.21123 10.7981 2.83241 10.3408 3.53065L4.29941 0.739192L4.28945 0.734939C4.0719 0.640286 3.83828 0.593435 3.60686 0.593435C3.23637 0.593435 2.86922 0.712592 2.56992 0.942844H2.57045C2.17547 1.24654 1.95354 1.70121 1.95354 2.17346C1.95354 2.28404 1.96629 2.39469 1.9902 2.50534L2.49754 4.76552L0.550707 6.42997C0.200215 6.72992 0 7.1585 0 7.60738C0 8.05671 0.200215 8.48535 0.550707 8.78479L2.49721 10.4504L1.99039 12.7106C1.96649 12.8206 1.95374 12.9323 1.95374 13.0413C1.95374 13.5146 2.17567 13.9688 2.57012 14.2725C2.86941 14.5022 3.23657 14.6213 3.60705 14.6213C3.83848 14.6213 4.07103 14.5756 4.28911 14.4804L4.3008 14.4756L10.4467 11.6363C10.9068 12.3021 11.4736 12.8935 12.1256 13.3875C13.4623 14.4022 15.1613 15.0101 17.0003 15.0095C18.7855 15.01 20.4399 14.4367 21.7589 13.4743C22.4548 12.9663 23.0556 12.3473 23.5412 11.6486L29.7005 14.4761L29.7105 14.4804C29.9291 14.5745 30.1617 14.6213 30.3931 14.6213C30.763 14.6213 31.1307 14.5022 31.43 14.2719C31.8239 13.9683 32.0464 13.5146 32.0464 13.0413C32.0464 12.9318 32.0342 12.8201 32.0091 12.7095L31.5023 10.4505L33.45 8.78486C33.8003 8.48535 34 8.05671 34 7.60738ZM29.6103 9.86114L30.2984 12.9259L24.3333 10.1871C24.4112 9.99249 24.4813 9.79468 24.5425 9.59255C24.6743 9.15598 24.4112 8.69966 23.955 8.57416C23.4988 8.44757 23.0211 8.69909 22.8897 9.13522C22.5209 10.3552 21.7466 11.414 20.7146 12.1665C19.6821 12.919 18.3999 13.3647 17.0002 13.3647C15.5589 13.3647 14.2421 12.8919 13.1941 12.099C12.1477 11.3055 11.3789 10.192 11.049 8.91773C10.935 8.47627 10.4687 8.20774 10.0071 8.3168C9.5465 8.42529 9.2644 8.87145 9.37902 9.31234C9.45525 9.60639 9.55035 9.89308 9.66105 10.1728L3.70148 12.9254L4.38852 9.86114L1.75452 7.60738L4.38852 5.35413L3.70148 2.28995L9.59378 5.0117C9.48421 5.30899 9.39403 5.61314 9.3239 5.92585C9.22429 6.37042 9.52033 6.80763 9.98537 6.90228C10.4493 6.99801 10.9066 6.71456 11.0062 6.2705C11.3015 4.95006 12.0648 3.79341 13.1217 2.96648C14.1804 2.14006 15.5255 1.64547 17.0002 1.64547C18.4599 1.64547 19.7933 2.13048 20.8464 2.94255C21.9001 3.75513 22.6655 4.89324 22.9765 6.194C23.0816 6.63648 23.5434 6.91352 24.0067 6.81251C24.4696 6.71202 24.7594 6.27056 24.6537 5.82764C24.5859 5.54419 24.4997 5.26716 24.3995 4.99697L30.2984 2.28957L29.6103 5.35381L32.2454 7.60757L29.6103 9.86114Z" fill="#CA43FF"/>
</svg>
