<svg width="87" height="49" viewBox="0 0 87 49" fill="none" xmlns="http://www.w3.org/2000/svg">
<path d="M4.55859 12.7109C5.69489 12.8733 6.68377 13.0026 7.52441 13.0996C8.3665 13.1968 9.06372 13.2788 9.61621 13.3438L10.5137 13.4277C10.7878 13.4519 11.0371 13.4722 11.2617 13.4883L11.2754 13.4893L11.2891 13.4912C11.744 13.548 12.3256 13.5225 13.0449 13.3975L13.0488 13.3965C13.8313 13.2661 14.6621 13.1361 15.541 13.0059C16.4303 12.8415 17.3512 12.7099 18.3037 12.6113C19.2806 12.5103 20.2287 12.5095 21.1455 12.6113C21.7546 12.679 22.5212 12.8128 23.4404 13.0098C24.3854 13.2123 25.3741 13.5317 26.4053 13.9639L26.8076 14.1338C27.7471 14.5448 28.6835 15.0568 29.6162 15.6689C30.7039 16.3828 31.6853 17.281 32.5615 18.3594C33.4452 19.447 34.1707 20.731 34.7402 22.2051C35.3181 23.7008 35.6346 25.4354 35.7012 27.3984C35.8002 30.303 35.5362 32.957 34.9033 35.3555C34.2707 37.7528 33.2833 39.8161 31.9355 41.5361L31.9365 41.5371C30.6176 43.2618 28.9437 44.6131 26.9229 45.5898C24.8964 46.5693 22.5472 47.1024 19.8877 47.2021L19.8867 47.2012C17.9069 47.3633 15.9594 47.5108 14.0439 47.6406L14.043 47.6396C13.223 47.7051 12.355 47.7544 11.4395 47.7871L11.4404 47.7881L8.80371 47.8857H8.78516C7.90027 47.8857 7.04738 47.8697 6.22656 47.8369C5.40523 47.8041 4.64635 47.7546 3.95215 47.6885L2.1582 47.5176L3.78418 46.7393C4.5127 46.3908 5.08058 46.0507 5.49805 45.7227L5.50391 45.7178L5.51074 45.7129C5.98118 45.3679 6.32791 45.0792 6.5625 44.8467C6.80953 44.5715 6.97737 44.3376 7.08301 44.1445C7.1453 43.7817 7.23981 43.1196 7.36133 42.1475C7.45859 41.2717 7.58872 40.0229 7.75098 38.4004C7.91329 36.7773 8.10818 34.5667 8.33594 31.7686V31.7676L8.62793 28.3047C8.79005 26.1647 8.85426 24.425 8.82227 23.0811V23.0693C8.82227 21.7147 8.79029 20.6604 8.72754 19.9004L8.64941 19.2764C8.56695 18.7063 8.47087 18.294 8.36719 18.0244L8.36426 18.0156C8.25762 17.7224 8.04538 17.3461 7.70508 16.8809C7.39801 16.5142 6.96181 16.0619 6.39062 15.5225L6.37109 15.5029C5.8432 14.944 5.11765 14.3109 4.18652 13.6045L2.64844 12.4385L4.55859 12.7109ZM19.0391 16.3916C18.6857 16.3916 18.3823 16.4902 18.1123 16.6865L18.0869 16.7041C17.8134 16.8782 17.3597 17.3438 16.7119 18.1846L16.6064 18.3418C16.3623 18.7304 16.1242 19.2739 15.9033 19.9912L15.9043 19.9922C15.6877 20.7039 15.497 21.6669 15.3359 22.8906C15.1979 23.9398 15.1421 25.2689 15.1738 26.8838L15.1934 27.5938V27.5967L15.291 31.1611V31.1631C15.3558 34.0462 15.5012 36.2486 15.7236 37.7803L15.8213 38.3311C16.0495 39.5665 16.2855 40.4824 16.5244 41.0947C16.8355 41.8277 17.1234 42.1648 17.335 42.29C17.7962 42.2631 18.3625 42.0578 19.0459 41.6035C19.7618 41.0956 20.4867 40.3177 21.2129 39.2441L21.2188 39.2363C21.9689 38.1736 22.65 36.8306 23.2578 35.1992L23.2607 35.1914C23.8939 33.577 24.3575 31.681 24.6465 29.498C24.9331 27.3327 24.8506 25.4481 24.416 23.834C23.9704 22.1787 23.3863 20.8147 22.6738 19.7305L22.6709 19.7256C21.942 18.5847 21.2146 17.7579 20.4971 17.2197L20.4863 17.2119V17.2109C20.1092 16.9124 19.794 16.7005 19.5381 16.5654C19.2734 16.4257 19.1148 16.3916 19.0391 16.3916Z" fill="#CA43FF" stroke="white"/>
<path d="M85.6016 11.8184C85.6344 12.5739 85.6504 13.3135 85.6504 14.0371C85.6825 14.7091 85.7151 15.3008 85.7471 15.8125V15.8174C85.78 16.443 85.7969 17.0217 85.7969 17.5527C85.7969 18.1237 85.7629 18.8374 85.6973 19.6904V19.6973C85.631 20.426 85.516 21.3477 85.3525 22.459L85.3516 22.458C85.2193 23.5456 85.0063 24.8402 84.7129 26.3398L83.7383 26.3691C83.2852 24.6217 82.8522 23.2274 82.4395 22.1797L82.4375 22.1748C82.0183 21.0785 81.6364 20.2233 81.2939 19.6006L81.2891 19.5908C80.9227 18.8887 80.5699 18.3783 80.2383 18.0371C79.8691 17.7874 79.4232 17.5715 78.8936 17.3945C78.413 17.2448 77.7801 17.1188 76.9854 17.0234H76.9824C76.3543 16.945 75.6103 16.9438 74.7461 17.0264C74.592 21.1242 74.4828 24.4609 74.4199 27.0371C74.3548 29.7061 74.306 31.7894 74.2734 33.2861C74.2411 35.0642 74.2248 36.3407 74.2246 37.1182L74.2432 37.5156C74.2929 38.3092 74.4217 39.0941 74.6299 39.8711L74.7402 40.2598L74.7422 40.2666C74.9885 41.1286 75.3922 42.0332 75.96 42.9795C76.5024 43.8835 77.2939 44.6954 78.3506 45.4102L79.7021 46.3242H72.1133C71.5794 46.3242 70.9123 46.3548 70.1094 46.4189C69.4179 46.4848 68.5329 46.55 67.4561 46.6152L67.457 46.6162C66.4267 46.6806 65.215 46.794 63.8213 46.9561L62.834 47.0703L63.3311 46.209C63.8123 45.3749 64.1924 44.6276 64.4756 43.9668C64.7652 43.2909 64.9876 42.7188 65.1445 42.248C65.3314 41.6875 65.4687 41.1947 65.5615 40.7686C65.5959 40.0969 65.6768 38.791 65.8037 36.8555C65.836 36.0469 65.868 35.0443 65.9004 33.8477L65.9014 33.834C65.9663 32.6328 66.0307 31.2033 66.0957 29.5449L66.0967 29.5352C66.194 27.8809 66.2748 25.9809 66.3398 23.8359V23.8291H66.3408C66.4333 21.763 66.5237 19.4479 66.6162 16.8838C66.2717 16.8424 65.9514 16.8815 65.6484 16.9951L65.6348 17L65.6221 17.0049C65.1441 17.1542 64.7357 17.3441 64.3926 17.5713C63.975 17.87 63.5676 18.2296 63.1719 18.6533C62.7677 19.1837 62.3107 19.8769 61.8008 20.7373L61.7979 20.7422C61.3547 21.4702 60.8428 22.446 60.2607 23.6748L60.2578 23.6797C59.6774 24.8728 59.0141 26.3614 58.2676 28.1465L57.3086 27.9961C57.1456 26.1056 57.0313 24.5536 56.9658 23.3418V23.3408C56.9007 22.1036 56.8519 21.1419 56.8193 20.457L56.8184 20.4531C56.7858 19.6384 56.7695 19.028 56.7695 18.627C56.7695 18.2974 56.7391 17.8497 56.6758 17.2773L56.4316 15.3691V15.3662C56.3346 14.5573 56.2044 13.5842 56.042 12.4473L55.9502 11.8037L56.5967 11.8809C58.7687 12.1402 60.6467 12.3343 62.2314 12.4639L66.1875 12.708H66.1865C67.3805 12.7725 68.3721 12.7875 69.1641 12.7559L69.8486 12.7227C70.5913 12.6804 71.5103 12.6111 72.6064 12.5137H72.6113C73.8463 12.4162 75.4709 12.2855 77.4854 12.123L80.8877 11.7822C82.1481 11.6521 83.5348 11.5055 85.0479 11.3428L85.5781 11.2861L85.6016 11.8184Z" fill="#CA43FF" stroke="white"/>
<path d="M50.2324 17.1133C50.2324 17.9673 50.2514 18.6366 50.2891 19.126L50.291 19.1445V24.7305C50.33 26.0935 50.389 27.8255 50.4668 29.9268L49.4912 30.0996C49.0254 28.6633 48.6037 27.5537 48.2266 26.7617L48.2148 26.7363C47.867 25.886 47.5678 25.2738 47.3184 24.8818L47.3145 24.875C47.0489 24.4434 46.8312 24.1673 46.668 24.0088C46.4347 23.9485 46.1281 23.8848 45.7432 23.8203C45.3368 23.7842 44.8124 23.7656 44.166 23.7656C43.6662 23.7656 43.0281 23.8362 42.2441 23.9785C42.1465 25.9282 42.1323 27.5098 42.2031 28.7285L42.2969 29.6279C42.3807 30.3283 42.4781 30.9065 42.5879 31.3662L42.6553 31.6279L42.6582 31.6367L42.6602 31.6455C42.8445 32.4197 43.0517 32.9122 43.251 33.1836C43.5031 33.4202 44.0741 33.6833 45.0947 33.9102C46.1033 34.0954 47.2526 34.1709 48.5459 34.1328C49.8707 34.0561 51.2176 33.8286 52.5869 33.4482C53.9238 33.0769 55.1068 32.4657 56.1426 31.6172C56.9366 30.8978 57.7951 29.9844 58.7168 28.8711C59.4828 27.9136 60.3316 26.6998 61.2627 25.2256L61.2676 25.2178C62.2255 23.7618 63.1701 21.9898 64.0996 19.8984L65.0547 20.1455C64.8986 21.9012 64.7819 23.3624 64.7041 24.5293C64.665 25.6566 64.6056 26.5805 64.5264 27.2969C64.4489 28.11 64.3905 28.7309 64.3516 29.1592C64.3488 29.6559 64.288 30.3293 64.1738 31.1689L64.1748 31.1699C64.0958 31.9206 63.9573 32.9401 63.7627 34.2256L63.7637 34.2266C63.607 35.4799 63.3917 37.084 63.1182 39.0381L63.0596 39.46L62.6338 39.4688C60.7982 39.5078 59.0601 39.5469 57.4199 39.5859H57.4082C55.7713 39.5859 54.3314 39.6057 53.0879 39.6445H53.085C51.6014 39.6836 50.2352 39.7227 48.9863 39.7617H48.9707C47.6964 39.7617 46.2831 39.8201 44.7305 39.9365H44.7217C44.041 39.9754 43.2965 40.0246 42.4883 40.083L39.8721 40.2871C38.0436 40.4427 36.0184 40.6569 33.7969 40.9297L33.1934 41.0039L33.2373 40.3965C33.4322 37.7462 33.5686 35.2531 33.6465 32.917L33.6475 32.9092C33.7645 30.5296 33.8419 28.4444 33.8809 26.6533C33.9198 24.5501 33.9197 22.6041 33.8809 20.8154V20.7832C34.0756 16.3045 33.9969 12.7025 33.6504 9.96875C33.4758 8.5911 33.2878 7.47153 33.0879 6.60547C32.8922 5.75771 32.6923 5.1925 32.5059 4.86621C32.2924 4.62162 31.9892 4.31714 31.5879 3.95215L31.3145 3.71973C31.0145 3.47559 30.6345 3.19504 30.1719 2.87695C29.5604 2.45654 28.7903 1.97469 27.8594 1.43164L28.126 0.5C30.8595 0.5781 33.1237 0.636754 34.9189 0.675781H60.3799L60.4248 1.12598C60.5026 1.9043 60.5611 2.66414 60.6006 3.40527L60.6523 3.92969C60.6973 4.4397 60.7207 4.90868 60.7207 5.33594C60.7207 6.00931 60.7012 6.62674 60.6611 7.1875C60.6214 7.74437 60.5615 8.34014 60.4824 8.97266L60.4814 8.98047C60.4038 9.52408 60.3259 10.108 60.248 10.7305C60.1663 11.3844 60.0234 12.0551 59.8213 12.7422L59.3115 14.4766L58.8574 12.7266C58.3207 10.6567 57.6043 9.1359 56.7354 8.12207L56.7285 8.11426C55.8584 7.05508 54.9884 6.30269 54.123 5.83398V5.83301C53.0999 5.28538 52.0271 4.99521 50.9004 4.95703C49.3233 5.03485 48.1144 5.16991 47.2607 5.35547C46.3979 5.54304 45.7635 5.7979 45.3291 6.09863C44.8733 6.41426 44.5364 6.77264 44.3047 7.16992C44.0757 7.59023 43.8273 8.06908 43.5586 8.60645C43.3547 9.01428 43.1499 9.68401 42.957 10.6484L42.9551 10.6582L42.9531 10.667C42.7638 11.4622 42.5706 12.5527 42.377 13.9453C42.239 15.1873 42.088 16.7532 41.9189 18.6426C42.6333 18.4151 43.2171 18.2023 43.6729 18.0029L43.6826 17.998C44.3415 17.7267 44.8564 17.4981 45.2314 17.3105C45.6083 17.104 45.8564 16.9276 46.0049 16.7891C46.142 16.5742 46.3523 16.1903 46.6387 15.6182C46.8717 15.0744 47.183 14.3372 47.5713 13.4053L47.5791 13.3896C48.0001 12.4712 48.5021 11.1973 49.0859 9.5625L50.0566 9.70898C50.1349 11.5099 50.1738 13.0215 50.1738 14.2422C50.1738 15.4096 50.193 16.357 50.2314 17.0869L50.2324 17.1006V17.1133Z" fill="#CA43FF" stroke="white"/>
</svg>
