<svg width="256" height="108" viewBox="0 0 256 108" fill="none" xmlns="http://www.w3.org/2000/svg">
<path d="M84.9746 37.1855C86.1139 37.3483 87.1068 37.4785 87.9531 37.5762C88.7995 37.6738 89.4993 37.7552 90.0527 37.8203C90.7038 37.8854 91.2572 37.9342 91.7129 37.9668C92.2337 38.0319 92.8685 37.9993 93.6172 37.8691C94.3984 37.7389 95.2285 37.6087 96.1074 37.4785C96.9863 37.3158 97.8978 37.1855 98.8418 37.0879C99.7858 36.9902 100.697 36.9902 101.576 37.0879C102.162 37.153 102.911 37.2832 103.822 37.4785C104.734 37.6738 105.694 37.9831 106.703 38.4062C107.745 38.8294 108.786 39.3828 109.828 40.0664C110.87 40.75 111.814 41.6126 112.66 42.6543C113.507 43.696 114.206 44.9329 114.76 46.3652C115.313 47.7975 115.622 49.474 115.688 51.3945C115.785 54.2591 115.525 56.8633 114.906 59.207C114.288 61.5508 113.327 63.5527 112.025 65.2129C110.756 66.873 109.145 68.1751 107.191 69.1191C105.238 70.0632 102.96 70.584 100.355 70.6816C98.3698 70.8444 96.4167 70.9909 94.4961 71.1211C93.6823 71.1862 92.8197 71.235 91.9082 71.2676C91.0293 71.3001 90.1504 71.3327 89.2715 71.3652C88.3926 71.3652 87.5462 71.349 86.7324 71.3164C85.9186 71.2839 85.1699 71.235 84.4863 71.1699C85.235 70.8118 85.8372 70.4538 86.293 70.0957C86.7812 69.7376 87.1556 69.4284 87.416 69.168C87.709 68.8424 87.9206 68.5495 88.0508 68.2891C88.1159 67.931 88.2135 67.2311 88.3438 66.1895C88.4414 65.3105 88.5716 64.0573 88.7344 62.4297C88.8971 60.8021 89.0924 58.5885 89.3203 55.7891L89.6133 52.3223C89.776 50.1738 89.8411 48.416 89.8086 47.0488C89.8086 45.6816 89.776 44.6074 89.7109 43.8262C89.6133 42.9147 89.4831 42.2474 89.3203 41.8242C89.1901 41.4661 88.946 41.043 88.5879 40.5547C88.2624 40.1641 87.8066 39.6921 87.2207 39.1387C86.6673 38.5527 85.9186 37.9017 84.9746 37.1855ZM95.2773 55.1543C95.3424 58.0514 95.4889 60.2812 95.7168 61.8438C95.9772 63.3737 96.2539 64.513 96.5469 65.2617C96.9049 66.1081 97.2956 66.6126 97.7188 66.7754C98.3372 66.7754 99.0371 66.515 99.8184 65.9941C100.6 65.4408 101.365 64.6107 102.113 63.5039C102.895 62.3971 103.594 61.0137 104.213 59.3535C104.864 57.6934 105.336 55.7565 105.629 53.543C105.922 51.3294 105.84 49.3763 105.385 47.6836C104.929 45.9909 104.327 44.5749 103.578 43.4355C102.829 42.2637 102.064 41.3848 101.283 40.7988C100.502 40.1803 99.916 39.8711 99.5254 39.8711C99.0697 39.8711 98.6628 40.0013 98.3047 40.2617C97.9466 40.4896 97.4421 41.0267 96.791 41.873C96.4655 42.3288 96.1725 42.9798 95.9121 43.8262C95.6842 44.5749 95.4889 45.5677 95.3262 46.8047C95.1634 48.0417 95.1146 49.6367 95.1797 51.5898L95.2773 55.1543Z" fill="white"/>
<path d="M137.023 36.3555C139.204 36.6159 141.092 36.8112 142.688 36.9414C144.283 37.0391 145.601 37.1204 146.643 37.1855C147.847 37.2507 148.856 37.2669 149.67 37.2344C150.516 37.2018 151.672 37.1204 153.137 36.9902C154.374 36.8926 156.001 36.7624 158.02 36.5996C160.038 36.4043 162.561 36.1439 165.588 35.8184C165.62 36.5671 165.637 37.2995 165.637 38.0156C165.669 38.6992 165.702 39.3014 165.734 39.8223C165.767 40.4408 165.783 41.0104 165.783 41.5312C165.783 42.0846 165.751 42.7845 165.686 43.6309C165.62 44.347 165.507 45.2585 165.344 46.3652C165.214 47.4395 165.002 48.7253 164.709 50.2227C164.253 48.4648 163.814 47.0488 163.391 45.9746C162.967 44.8678 162.577 43.9889 162.219 43.3379C161.828 42.5892 161.438 42.0195 161.047 41.6289C160.624 41.3359 160.119 41.0918 159.533 40.8965C159.012 40.7337 158.345 40.6035 157.531 40.5059C156.75 40.4082 155.822 40.4245 154.748 40.5547C154.585 44.8516 154.471 48.3346 154.406 51.0039C154.341 53.6732 154.292 55.7565 154.26 57.2539C154.227 59.0443 154.211 60.3301 154.211 61.1113C154.243 62.2181 154.423 63.3086 154.748 64.3828C155.008 65.2943 155.432 66.2383 156.018 67.2148C156.604 68.1914 157.45 69.054 158.557 69.8027H152.6C152.046 69.8027 151.363 69.8353 150.549 69.9004C149.865 69.9655 148.986 70.0306 147.912 70.0957C146.87 70.1608 145.65 70.2747 144.25 70.4375C144.738 69.5911 145.129 68.8262 145.422 68.1426C145.715 67.459 145.943 66.873 146.105 66.3848C146.301 65.7988 146.447 65.278 146.545 64.8223C146.577 64.1712 146.659 62.8529 146.789 60.8672C146.822 60.0534 146.854 59.0443 146.887 57.8398C146.952 56.6354 147.017 55.2031 147.082 53.543C147.18 51.8828 147.261 49.9785 147.326 47.8301C147.424 45.6491 147.521 43.1914 147.619 40.457C147.033 40.2943 146.48 40.3105 145.959 40.5059C145.438 40.6686 144.982 40.8802 144.592 41.1406C144.136 41.4661 143.697 41.8568 143.273 42.3125C142.85 42.8659 142.378 43.582 141.857 44.4609C141.402 45.2096 140.881 46.2025 140.295 47.4395C139.709 48.6439 139.042 50.1413 138.293 51.9316C138.13 50.0436 138.016 48.4974 137.951 47.293C137.886 46.056 137.837 45.0957 137.805 44.4121C137.772 43.5983 137.756 42.9961 137.756 42.6055C137.756 42.2474 137.723 41.7754 137.658 41.1895C137.593 40.7012 137.512 40.0664 137.414 39.2852C137.316 38.4714 137.186 37.4948 137.023 36.3555Z" fill="white"/>
<path d="M108.598 24.9805C111.332 25.0586 113.598 25.1172 115.395 25.1562C117.23 25.1562 118.715 25.1562 119.848 25.1562H122.953H140.414C140.492 25.9375 140.551 26.6992 140.59 27.4414C140.668 28.1445 140.707 28.7695 140.707 29.3164C140.707 29.9805 140.688 30.5859 140.648 31.1328C140.609 31.6797 140.551 32.2656 140.473 32.8906C140.395 33.4375 140.316 34.0234 140.238 34.6484C140.16 35.2734 140.023 35.918 139.828 36.582C139.281 34.4727 138.539 32.8711 137.602 31.7773C136.703 30.6836 135.785 29.8828 134.848 29.375C133.754 28.7891 132.602 28.4766 131.391 28.4375C129.789 28.5156 128.539 28.6523 127.641 28.8477C126.742 29.043 126.039 29.3164 125.531 29.668C125.023 30.0195 124.633 30.4297 124.359 30.8984C124.125 31.3281 123.871 31.8164 123.598 32.3633C123.363 32.832 123.148 33.5547 122.953 34.5312C122.758 35.3516 122.562 36.4648 122.367 37.8711C122.211 39.2773 122.035 41.0938 121.84 43.3203C122.895 43.0078 123.734 42.7148 124.359 42.4414C125.023 42.168 125.551 41.9336 125.941 41.7383C126.371 41.5039 126.684 41.2891 126.879 41.0938C127.035 40.8594 127.27 40.4297 127.582 39.8047C127.816 39.2578 128.129 38.5156 128.52 37.5781C128.949 36.6406 129.457 35.3516 130.043 33.7109C130.121 35.5078 130.16 37.0117 130.16 38.2227C130.16 39.3945 130.18 40.3516 130.219 41.0938C130.219 41.9531 130.238 42.6367 130.277 43.1445V45.3711C130.277 46.1914 130.277 47.3047 130.277 48.7109C130.316 50.0781 130.375 51.8164 130.453 53.9258C129.984 52.4805 129.555 51.3477 129.164 50.5273C128.812 49.668 128.5 49.0234 128.227 48.5938C127.914 48.0859 127.641 47.7344 127.406 47.5391C127.133 47.4609 126.762 47.3828 126.293 47.3047C125.863 47.2656 125.316 47.2461 124.652 47.2461C124.027 47.2461 123.227 47.3438 122.25 47.5391C122.133 49.6875 122.113 51.4258 122.191 52.7539C122.309 54.043 122.465 55.0391 122.66 55.7422C122.855 56.5625 123.09 57.1484 123.363 57.5C123.715 57.8516 124.418 58.1445 125.473 58.3789C126.527 58.5742 127.719 58.6523 129.047 58.6133C130.414 58.5352 131.801 58.3008 133.207 57.9102C134.613 57.5195 135.863 56.875 136.957 55.9766C137.777 55.2344 138.656 54.2969 139.594 53.1641C140.375 52.1875 141.234 50.957 142.172 49.4727C143.148 47.9883 144.105 46.1914 145.043 44.082C144.887 45.8398 144.77 47.3047 144.691 48.4766C144.652 49.6094 144.594 50.5273 144.516 51.2305C144.438 52.0508 144.379 52.6758 144.34 53.1055C144.34 53.5742 144.281 54.2383 144.164 55.0977C144.086 55.8398 143.949 56.8555 143.754 58.1445C143.598 59.3945 143.383 60.9961 143.109 62.9492C141.273 62.9883 139.535 63.0273 137.895 63.0664C136.254 63.0664 134.809 63.0859 133.559 63.125C132.074 63.1641 130.707 63.2031 129.457 63.2422C128.168 63.2422 126.742 63.3008 125.18 63.418C123.812 63.4961 122.191 63.6133 120.316 63.7695C118.48 63.9258 116.449 64.1406 114.223 64.4141C114.418 61.7578 114.555 59.2578 114.633 56.9141C114.75 54.5312 114.828 52.4414 114.867 50.6445C114.906 48.5352 114.906 46.582 114.867 44.7852C115.062 40.293 114.984 36.6602 114.633 33.8867C114.281 31.1133 113.871 29.3359 113.402 28.5547C113.168 28.2813 112.836 27.9492 112.406 27.5586C112.055 27.2461 111.566 26.875 110.941 26.4453C110.316 26.0156 109.535 25.5273 108.598 24.9805Z" fill="white"/>
<path d="M7.0625 103H1.39062V87H7.10937C8.71875 87 10.1042 87.3203 11.2656 87.9609C12.4271 88.5964 13.3203 89.5104 13.9453 90.7031C14.5755 91.8958 14.8906 93.3229 14.8906 94.9844C14.8906 96.651 14.5755 98.0833 13.9453 99.2812C13.3203 100.479 12.4219 101.398 11.25 102.039C10.0833 102.68 8.6875 103 7.0625 103ZM4.77344 100.102H6.92188C7.92188 100.102 8.76302 99.9245 9.44531 99.5703C10.1328 99.2109 10.6484 98.6562 10.9922 97.9062C11.3411 97.151 11.5156 96.1771 11.5156 94.9844C11.5156 93.8021 11.3411 92.8359 10.9922 92.0859C10.6484 91.3359 10.1354 90.7839 9.45312 90.4297C8.77083 90.0755 7.92969 89.8984 6.92969 89.8984H4.77344V100.102ZM22.7559 103.234C21.5423 103.234 20.4928 102.977 19.6074 102.461C18.7272 101.94 18.0475 101.216 17.5684 100.289C17.0892 99.3568 16.8496 98.276 16.8496 97.0469C16.8496 95.8073 17.0892 94.724 17.5684 93.7969C18.0475 92.8646 18.7272 92.1406 19.6074 91.625C20.4928 91.1042 21.5423 90.8438 22.7559 90.8438C23.9694 90.8438 25.0163 91.1042 25.8965 91.625C26.7819 92.1406 27.4642 92.8646 27.9434 93.7969C28.4225 94.724 28.6621 95.8073 28.6621 97.0469C28.6621 98.276 28.4225 99.3568 27.9434 100.289C27.4642 101.216 26.7819 101.94 25.8965 102.461C25.0163 102.977 23.9694 103.234 22.7559 103.234ZM22.7715 100.656C23.3236 100.656 23.7845 100.5 24.1543 100.188C24.5241 99.8698 24.8027 99.4375 24.9902 98.8906C25.1829 98.3437 25.2793 97.7214 25.2793 97.0234C25.2793 96.3255 25.1829 95.7031 24.9902 95.1562C24.8027 94.6094 24.5241 94.1771 24.1543 93.8594C23.7845 93.5417 23.3236 93.3828 22.7715 93.3828C22.2142 93.3828 21.7454 93.5417 21.3652 93.8594C20.9902 94.1771 20.7064 94.6094 20.5137 95.1562C20.3262 95.7031 20.2324 96.3255 20.2324 97.0234C20.2324 97.7214 20.3262 98.3437 20.5137 98.8906C20.7064 99.4375 20.9902 99.8698 21.3652 100.188C21.7454 100.5 22.2142 100.656 22.7715 100.656ZM34.1543 87V103H30.8262V87H34.1543ZM42.2422 103.234C41.013 103.234 39.9557 102.974 39.0703 102.453C38.1901 101.927 37.513 101.198 37.0391 100.266C36.5703 99.3333 36.3359 98.2604 36.3359 97.0469C36.3359 95.8177 36.5729 94.7396 37.0469 93.8125C37.526 92.8802 38.2057 92.1536 39.0859 91.6328C39.9661 91.1068 41.013 90.8438 42.2266 90.8438C43.2734 90.8438 44.1901 91.0339 44.9766 91.4141C45.763 91.7943 46.3854 92.3281 46.8438 93.0156C47.3021 93.7031 47.5547 94.5104 47.6016 95.4375H44.4609C44.3724 94.8385 44.138 94.3568 43.7578 93.9922C43.3828 93.6224 42.8906 93.4375 42.2812 93.4375C41.7656 93.4375 41.3151 93.5781 40.9297 93.8594C40.5495 94.1354 40.2526 94.5391 40.0391 95.0703C39.8255 95.6016 39.7188 96.2448 39.7188 97C39.7188 97.7656 39.8229 98.4167 40.0313 98.9531C40.2448 99.4896 40.5443 99.8984 40.9297 100.18C41.3151 100.461 41.7656 100.602 42.2812 100.602C42.6615 100.602 43.0026 100.523 43.3047 100.367C43.612 100.211 43.8646 99.9844 44.0625 99.6875C44.2656 99.3854 44.3984 99.0234 44.4609 98.6016H47.6016C47.5495 99.5182 47.2995 100.326 46.8516 101.023C46.4089 101.716 45.7969 102.258 45.0156 102.648C44.2344 103.039 43.3099 103.234 42.2422 103.234ZM55.2012 103.234C53.9668 103.234 52.9043 102.984 52.0137 102.484C51.1283 101.979 50.446 101.266 49.9668 100.344C49.4876 99.4167 49.248 98.3203 49.248 97.0547C49.248 95.8203 49.4876 94.737 49.9668 93.8047C50.446 92.8724 51.1204 92.1458 51.9902 91.625C52.8652 91.1042 53.8913 90.8438 55.0684 90.8438C55.86 90.8438 56.597 90.9714 57.2793 91.2266C57.9668 91.4766 58.5658 91.8542 59.0762 92.3594C59.5918 92.8646 59.9928 93.5 60.2793 94.2656C60.5658 95.026 60.709 95.9167 60.709 96.9375V97.8516H50.5762V95.7891H57.5762C57.5762 95.3099 57.472 94.8854 57.2637 94.5156C57.0553 94.1458 56.7663 93.8568 56.3965 93.6484C56.0319 93.4349 55.6074 93.3281 55.123 93.3281C54.6178 93.3281 54.1699 93.4453 53.7793 93.6797C53.3939 93.9089 53.0918 94.2187 52.873 94.6094C52.6543 94.9948 52.5423 95.4245 52.5371 95.8984V97.8594C52.5371 98.4531 52.6465 98.9661 52.8652 99.3984C53.0892 99.8307 53.4043 100.164 53.8105 100.398C54.2168 100.633 54.6986 100.75 55.2559 100.75C55.6257 100.75 55.9642 100.698 56.2715 100.594C56.5788 100.49 56.8418 100.333 57.0605 100.125C57.2793 99.9167 57.446 99.6615 57.5605 99.3594L60.6387 99.5625C60.4824 100.302 60.1621 100.948 59.6777 101.5C59.1986 102.047 58.5788 102.474 57.8184 102.781C57.0632 103.083 56.1908 103.234 55.2012 103.234ZM67.4258 89.7891V87H80.5664V89.7891H75.668V103H72.3242V89.7891H67.4258ZM86.3965 103.234C85.1621 103.234 84.0996 102.984 83.209 102.484C82.3236 101.979 81.6413 101.266 81.1621 100.344C80.6829 99.4167 80.4434 98.3203 80.4434 97.0547C80.4434 95.8203 80.6829 94.737 81.1621 93.8047C81.6413 92.8724 82.3158 92.1458 83.1855 91.625C84.0605 91.1042 85.0866 90.8438 86.2637 90.8438C87.0553 90.8438 87.7923 90.9714 88.4746 91.2266C89.1621 91.4766 89.7611 91.8542 90.2715 92.3594C90.7871 92.8646 91.1882 93.5 91.4746 94.2656C91.7611 95.026 91.9043 95.9167 91.9043 96.9375V97.8516H81.7715V95.7891H88.7715C88.7715 95.3099 88.6673 94.8854 88.459 94.5156C88.2507 94.1458 87.9616 93.8568 87.5918 93.6484C87.2272 93.4349 86.8027 93.3281 86.3184 93.3281C85.8132 93.3281 85.3652 93.4453 84.9746 93.6797C84.5892 93.9089 84.2871 94.2187 84.0684 94.6094C83.8496 94.9948 83.7376 95.4245 83.7324 95.8984V97.8594C83.7324 98.4531 83.8418 98.9661 84.0605 99.3984C84.2845 99.8307 84.5996 100.164 85.0059 100.398C85.4121 100.633 85.8939 100.75 86.4512 100.75C86.821 100.75 87.1595 100.698 87.4668 100.594C87.7741 100.49 88.0371 100.333 88.2559 100.125C88.4746 99.9167 88.6413 99.6615 88.7559 99.3594L91.834 99.5625C91.6777 100.302 91.3574 100.948 90.873 101.5C90.3939 102.047 89.7741 102.474 89.0137 102.781C88.2585 103.083 87.3861 103.234 86.3965 103.234ZM94.0762 103V91H97.3027V93.0937H97.4277C97.6465 92.349 98.0137 91.7865 98.5293 91.4063C99.0449 91.0208 99.6387 90.8281 100.311 90.8281C100.477 90.8281 100.657 90.8385 100.85 90.8594C101.042 90.8802 101.212 90.9089 101.357 90.9453V93.8984C101.201 93.8516 100.985 93.8099 100.709 93.7734C100.433 93.737 100.18 93.7188 99.9512 93.7188C99.4616 93.7188 99.0241 93.8255 98.6387 94.0391C98.2585 94.2474 97.9564 94.5391 97.7324 94.9141C97.5137 95.2891 97.4043 95.7214 97.4043 96.2109V103H94.0762ZM103.078 103V91H106.305V93.0937H106.43C106.648 92.349 107.016 91.7865 107.531 91.4063C108.047 91.0208 108.641 90.8281 109.312 90.8281C109.479 90.8281 109.659 90.8385 109.852 90.8594C110.044 90.8802 110.214 90.9089 110.359 90.9453V93.8984C110.203 93.8516 109.987 93.8099 109.711 93.7734C109.435 93.737 109.182 93.7188 108.953 93.7188C108.464 93.7188 108.026 93.8255 107.641 94.0391C107.26 94.2474 106.958 94.5391 106.734 94.9141C106.516 95.2891 106.406 95.7214 106.406 96.2109V103H103.078ZM115.158 103.227C114.393 103.227 113.71 103.094 113.111 102.828C112.512 102.557 112.038 102.159 111.689 101.633C111.346 101.102 111.174 100.44 111.174 99.6484C111.174 98.9818 111.296 98.4219 111.541 97.9687C111.786 97.5156 112.119 97.151 112.541 96.875C112.963 96.599 113.442 96.3906 113.979 96.25C114.52 96.1094 115.088 96.0104 115.682 95.9531C116.38 95.8802 116.942 95.8125 117.369 95.75C117.796 95.6823 118.106 95.5833 118.299 95.4531C118.492 95.3229 118.588 95.1302 118.588 94.875V94.8281C118.588 94.3333 118.432 93.9505 118.119 93.6797C117.812 93.4089 117.374 93.2734 116.807 93.2734C116.208 93.2734 115.731 93.4062 115.377 93.6719C115.023 93.9323 114.788 94.2604 114.674 94.6562L111.596 94.4062C111.752 93.6771 112.059 93.0469 112.518 92.5156C112.976 91.9792 113.567 91.5677 114.291 91.2812C115.02 90.9896 115.864 90.8438 116.822 90.8438C117.489 90.8438 118.127 90.9219 118.736 91.0781C119.351 91.2344 119.895 91.4766 120.369 91.8047C120.848 92.1328 121.226 92.5547 121.502 93.0703C121.778 93.5807 121.916 94.1927 121.916 94.9062V103H118.76V101.336H118.666C118.473 101.711 118.215 102.042 117.893 102.328C117.57 102.609 117.182 102.831 116.729 102.992C116.275 103.148 115.752 103.227 115.158 103.227ZM116.111 100.93C116.601 100.93 117.033 100.833 117.408 100.641C117.783 100.443 118.077 100.177 118.291 99.8438C118.505 99.5104 118.611 99.1328 118.611 98.7109V97.4375C118.507 97.5052 118.364 97.5677 118.182 97.625C118.005 97.6771 117.804 97.7266 117.58 97.7734C117.356 97.8151 117.132 97.8542 116.908 97.8906C116.684 97.9219 116.481 97.9505 116.299 97.9766C115.908 98.0339 115.567 98.125 115.275 98.25C114.984 98.375 114.757 98.5443 114.596 98.7578C114.434 98.9661 114.354 99.2266 114.354 99.5391C114.354 99.9922 114.518 100.339 114.846 100.578C115.179 100.812 115.601 100.93 116.111 100.93ZM129.652 103V87H140.434V89.7891H133.035V93.6016H139.879V96.3906H133.035V100.211H140.465V103H129.652ZM145.842 91L148.045 95.1953L150.303 91H153.717L150.24 97L153.811 103H150.412L148.045 98.8516L145.717 103H142.279L145.842 97L142.404 91H145.842ZM155.693 107.5V91H158.975V93.0156H159.123C159.269 92.6927 159.48 92.3646 159.756 92.0312C160.037 91.6927 160.402 91.4115 160.85 91.1875C161.303 90.9583 161.865 90.8438 162.537 90.8438C163.412 90.8438 164.219 91.0729 164.959 91.5313C165.699 91.9844 166.29 92.6693 166.732 93.5859C167.175 94.4974 167.396 95.6406 167.396 97.0156C167.396 98.3542 167.18 99.4844 166.748 100.406C166.321 101.323 165.738 102.018 164.998 102.492C164.264 102.961 163.441 103.195 162.529 103.195C161.883 103.195 161.334 103.089 160.881 102.875C160.433 102.661 160.066 102.393 159.779 102.07C159.493 101.742 159.274 101.411 159.123 101.078H159.021V107.5H155.693ZM158.951 97C158.951 97.7135 159.05 98.3359 159.248 98.8672C159.446 99.3984 159.732 99.8125 160.107 100.109C160.482 100.401 160.938 100.547 161.475 100.547C162.016 100.547 162.475 100.398 162.85 100.102C163.225 99.7995 163.508 99.3828 163.701 98.8516C163.899 98.3151 163.998 97.6979 163.998 97C163.998 96.3073 163.902 95.6979 163.709 95.1719C163.516 94.6458 163.232 94.2344 162.857 93.9375C162.482 93.6406 162.021 93.4922 161.475 93.4922C160.933 93.4922 160.475 93.6354 160.1 93.9219C159.73 94.2083 159.446 94.6146 159.248 95.1406C159.05 95.6667 158.951 96.2865 158.951 97ZM175.084 103.234C173.85 103.234 172.787 102.984 171.896 102.484C171.011 101.979 170.329 101.266 169.85 100.344C169.37 99.4167 169.131 98.3203 169.131 97.0547C169.131 95.8203 169.37 94.737 169.85 93.8047C170.329 92.8724 171.003 92.1458 171.873 91.625C172.748 91.1042 173.774 90.8438 174.951 90.8438C175.743 90.8438 176.48 90.9714 177.162 91.2266C177.85 91.4766 178.449 91.8542 178.959 92.3594C179.475 92.8646 179.876 93.5 180.162 94.2656C180.449 95.026 180.592 95.9167 180.592 96.9375V97.8516H170.459V95.7891H177.459C177.459 95.3099 177.355 94.8854 177.146 94.5156C176.938 94.1458 176.649 93.8568 176.279 93.6484C175.915 93.4349 175.49 93.3281 175.006 93.3281C174.501 93.3281 174.053 93.4453 173.662 93.6797C173.277 93.9089 172.975 94.2187 172.756 94.6094C172.537 94.9948 172.425 95.4245 172.42 95.8984V97.8594C172.42 98.4531 172.529 98.9661 172.748 99.3984C172.972 99.8307 173.287 100.164 173.693 100.398C174.1 100.633 174.581 100.75 175.139 100.75C175.508 100.75 175.847 100.698 176.154 100.594C176.462 100.49 176.725 100.333 176.943 100.125C177.162 99.9167 177.329 99.6615 177.443 99.3594L180.521 99.5625C180.365 100.302 180.045 100.948 179.561 101.5C179.081 102.047 178.462 102.474 177.701 102.781C176.946 103.083 176.074 103.234 175.084 103.234ZM187.186 103.195C186.274 103.195 185.449 102.961 184.709 102.492C183.975 102.018 183.391 101.323 182.959 100.406C182.532 99.4844 182.318 98.3542 182.318 97.0156C182.318 95.6406 182.54 94.4974 182.982 93.5859C183.425 92.6693 184.014 91.9844 184.748 91.5313C185.488 91.0729 186.298 90.8438 187.178 90.8438C187.85 90.8438 188.41 90.9583 188.857 91.1875C189.311 91.4115 189.675 91.6927 189.951 92.0312C190.232 92.3646 190.446 92.6927 190.592 93.0156H190.693V87H194.014V103H190.732V101.078H190.592C190.436 101.411 190.214 101.742 189.928 102.07C189.646 102.393 189.279 102.661 188.826 102.875C188.378 103.089 187.831 103.195 187.186 103.195ZM188.24 100.547C188.777 100.547 189.23 100.401 189.6 100.109C189.975 99.8125 190.261 99.3984 190.459 98.8672C190.662 98.3359 190.764 97.7135 190.764 97C190.764 96.2865 190.665 95.6667 190.467 95.1406C190.269 94.6146 189.982 94.2083 189.607 93.9219C189.232 93.6354 188.777 93.4922 188.24 93.4922C187.693 93.4922 187.232 93.6406 186.857 93.9375C186.482 94.2344 186.199 94.6458 186.006 95.1719C185.813 95.6979 185.717 96.3073 185.717 97C185.717 97.6979 185.813 98.3151 186.006 98.8516C186.204 99.3828 186.488 99.7995 186.857 100.102C187.232 100.398 187.693 100.547 188.24 100.547ZM196.75 103V91H200.078V103H196.75ZM198.422 89.4531C197.927 89.4531 197.503 89.2891 197.148 88.9609C196.799 88.6276 196.625 88.2292 196.625 87.7656C196.625 87.3073 196.799 86.9141 197.148 86.5859C197.503 86.2526 197.927 86.0859 198.422 86.0859C198.917 86.0859 199.339 86.2526 199.688 86.5859C200.042 86.9141 200.219 87.3073 200.219 87.7656C200.219 88.2292 200.042 88.6276 199.688 88.9609C199.339 89.2891 198.917 89.4531 198.422 89.4531ZM209.127 91V93.5H201.9V91H209.127ZM203.541 88.125H206.869V99.3125C206.869 99.6198 206.916 99.8594 207.01 100.031C207.104 100.198 207.234 100.315 207.4 100.383C207.572 100.451 207.77 100.484 207.994 100.484C208.15 100.484 208.307 100.471 208.463 100.445C208.619 100.414 208.739 100.391 208.822 100.375L209.346 102.852C209.179 102.904 208.945 102.964 208.643 103.031C208.34 103.104 207.973 103.148 207.541 103.164C206.739 103.195 206.036 103.089 205.432 102.844C204.833 102.599 204.367 102.219 204.033 101.703C203.7 101.187 203.536 100.536 203.541 99.75V88.125ZM211.295 103V91H214.623V103H211.295ZM212.967 89.4531C212.472 89.4531 212.048 89.2891 211.693 88.9609C211.344 88.6276 211.17 88.2292 211.17 87.7656C211.17 87.3073 211.344 86.9141 211.693 86.5859C212.048 86.2526 212.472 86.0859 212.967 86.0859C213.462 86.0859 213.883 86.2526 214.232 86.5859C214.587 86.9141 214.764 87.3073 214.764 87.7656C214.764 88.2292 214.587 88.6276 214.232 88.9609C213.883 89.2891 213.462 89.4531 212.967 89.4531ZM222.711 103.234C221.497 103.234 220.448 102.977 219.563 102.461C218.682 101.94 218.003 101.216 217.523 100.289C217.044 99.3568 216.805 98.276 216.805 97.0469C216.805 95.8073 217.044 94.724 217.523 93.7969C218.003 92.8646 218.682 92.1406 219.563 91.625C220.448 91.1042 221.497 90.8438 222.711 90.8438C223.924 90.8438 224.971 91.1042 225.852 91.625C226.737 92.1406 227.419 92.8646 227.898 93.7969C228.378 94.724 228.617 95.8073 228.617 97.0469C228.617 98.276 228.378 99.3568 227.898 100.289C227.419 101.216 226.737 101.94 225.852 102.461C224.971 102.977 223.924 103.234 222.711 103.234ZM222.727 100.656C223.279 100.656 223.74 100.5 224.109 100.188C224.479 99.8698 224.758 99.4375 224.945 98.8906C225.138 98.3437 225.234 97.7214 225.234 97.0234C225.234 96.3255 225.138 95.7031 224.945 95.1562C224.758 94.6094 224.479 94.1771 224.109 93.8594C223.74 93.5417 223.279 93.3828 222.727 93.3828C222.169 93.3828 221.701 93.5417 221.32 93.8594C220.945 94.1771 220.661 94.6094 220.469 95.1562C220.281 95.7031 220.188 96.3255 220.188 97.0234C220.188 97.7214 220.281 98.3437 220.469 98.8906C220.661 99.4375 220.945 99.8698 221.32 100.188C221.701 100.5 222.169 100.656 222.727 100.656ZM234.109 96.0625V103H230.781V91H233.953V93.1172H234.094C234.359 92.4193 234.805 91.8672 235.43 91.4609C236.055 91.0495 236.812 90.8438 237.703 90.8438C238.536 90.8438 239.263 91.026 239.883 91.3906C240.503 91.7552 240.984 92.276 241.328 92.9531C241.672 93.625 241.844 94.4271 241.844 95.3594V103H238.516V95.9531C238.521 95.2187 238.333 94.6458 237.953 94.2344C237.573 93.8177 237.049 93.6094 236.383 93.6094C235.935 93.6094 235.539 93.7057 235.195 93.8984C234.857 94.0911 234.591 94.3724 234.398 94.7422C234.211 95.1068 234.115 95.5469 234.109 96.0625ZM254.451 94.4219L251.404 94.6094C251.352 94.349 251.24 94.1146 251.068 93.9062C250.896 93.6927 250.67 93.5234 250.389 93.3984C250.113 93.2682 249.782 93.2031 249.396 93.2031C248.881 93.2031 248.446 93.3125 248.092 93.5312C247.738 93.7448 247.561 94.0312 247.561 94.3906C247.561 94.6771 247.675 94.9193 247.904 95.1172C248.133 95.3151 248.527 95.474 249.084 95.5937L251.256 96.0312C252.423 96.2708 253.292 96.6562 253.865 97.1875C254.438 97.7187 254.725 98.4167 254.725 99.2812C254.725 100.068 254.493 100.758 254.029 101.352C253.571 101.945 252.941 102.409 252.139 102.742C251.342 103.07 250.423 103.234 249.381 103.234C247.792 103.234 246.527 102.904 245.584 102.242C244.646 101.576 244.097 100.669 243.936 99.5234L247.209 99.3516C247.308 99.8359 247.548 100.206 247.928 100.461C248.308 100.711 248.795 100.836 249.389 100.836C249.972 100.836 250.441 100.724 250.795 100.5C251.154 100.271 251.337 99.9766 251.342 99.6172C251.337 99.3151 251.209 99.0677 250.959 98.875C250.709 98.6771 250.324 98.526 249.803 98.4219L247.725 98.0078C246.553 97.7734 245.68 97.3672 245.107 96.7891C244.54 96.2109 244.256 95.474 244.256 94.5781C244.256 93.8073 244.464 93.1432 244.881 92.5859C245.303 92.0286 245.894 91.599 246.654 91.2969C247.42 90.9948 248.316 90.8438 249.342 90.8438C250.857 90.8438 252.05 91.1641 252.92 91.8047C253.795 92.4453 254.305 93.3177 254.451 94.4219Z" fill="white"/>
<path d="M145 6.78747C145 6.38651 144.83 6.00408 144.531 5.73696L142.87 4.25088L143.302 2.2343C143.323 2.1366 143.334 2.03787 143.334 1.93921C143.334 1.51786 143.144 1.11219 142.808 0.841226C142.553 0.63579 142.239 0.529476 141.923 0.529476C141.726 0.529476 141.527 0.571277 141.341 0.655218L141.334 0.659013L136.172 3.13681C135.777 2.50714 135.279 1.9477 134.703 1.4837C133.555 0.556041 132.089 0 130.5 0C128.895 0 127.416 0.567482 126.263 1.51077C125.697 1.97291 125.21 2.52713 124.82 3.15013L119.667 0.659523L119.659 0.655728C119.473 0.571277 119.274 0.529476 119.076 0.529476C118.76 0.529476 118.447 0.63579 118.192 0.841226H118.192C117.856 1.11219 117.666 1.51786 117.666 1.93921C117.666 2.03787 117.677 2.1366 117.698 2.23532L118.13 4.2519L116.47 5.73696C116.171 6.00459 116 6.38697 116 6.78747C116 7.18838 116.171 7.57081 116.47 7.83799L118.13 9.32407L117.698 11.3406C117.677 11.4389 117.666 11.5385 117.666 11.6357C117.666 12.0581 117.856 12.4633 118.192 12.7342C118.447 12.9392 118.761 13.0455 119.077 13.0455C119.274 13.0455 119.472 13.0047 119.658 12.9197L119.668 12.9154L124.91 10.3822C125.303 10.9762 125.786 11.5039 126.342 11.9447C127.483 12.85 128.932 13.3923 130.5 13.3918C132.023 13.3923 133.434 12.8808 134.559 12.022C135.153 11.5688 135.665 11.0165 136.079 10.3931L141.333 12.9159L141.341 12.9197C141.528 13.0037 141.726 13.0455 141.924 13.0455C142.239 13.0455 142.553 12.9392 142.808 12.7337C143.144 12.4628 143.334 12.0581 143.334 11.6357C143.334 11.538 143.323 11.4384 143.302 11.3397L142.87 9.32412L144.531 7.83804C144.83 7.57081 145 7.18838 145 6.78747ZM141.256 8.79833L141.843 11.5328L136.755 9.08918C136.821 8.91552 136.881 8.73903 136.933 8.55868C137.046 8.16916 136.821 7.76203 136.432 7.65005C136.043 7.53711 135.636 7.76152 135.524 8.15064C135.209 9.23911 134.549 10.1838 133.668 10.8552C132.788 11.5266 131.694 11.9243 130.5 11.9243C129.271 11.9243 128.148 11.5024 127.254 10.795C126.361 10.087 125.706 9.09348 125.424 7.95659C125.327 7.56271 124.929 7.32312 124.535 7.42043C124.143 7.51723 123.902 7.9153 124 8.30867C124.065 8.57103 124.146 8.82682 124.24 9.07638L119.157 11.5323L119.743 8.79833L117.497 6.78747L119.743 4.77707L119.157 2.04314L124.183 4.47155C124.089 4.7368 124.013 5.00816 123.953 5.28718C123.868 5.68383 124.12 6.07391 124.517 6.15837C124.913 6.24378 125.303 5.99088 125.388 5.59468C125.64 4.41655 126.291 3.38456 127.192 2.64676C128.095 1.90941 129.242 1.46812 130.5 1.46812C131.745 1.46812 132.883 1.90086 133.781 2.62541C134.679 3.35041 135.332 4.36586 135.598 5.52643C135.687 5.92121 136.081 6.16839 136.476 6.07828C136.871 5.98861 137.118 5.59473 137.028 5.19955C136.97 4.94665 136.897 4.69947 136.811 4.45841L141.843 2.0428L141.256 4.77679L143.503 6.78764L141.256 8.79833Z" fill="white"/>
</svg>
