<svg width="244" height="107" viewBox="0 0 244 107" fill="none" xmlns="http://www.w3.org/2000/svg">
<path d="M76.9727 39.1865C78.112 39.3493 79.1049 39.4795 79.9512 39.5772C80.7976 39.6748 81.4974 39.7562 82.0508 39.8213C82.7019 39.8864 83.2553 39.9352 83.711 39.9678C84.2318 40.0329 84.8666 40.0003 85.6153 39.8701C86.3965 39.7399 87.2266 39.6097 88.1055 39.4795C88.9844 39.3168 89.8959 39.1865 90.8399 39.0889C91.7839 38.9912 92.6954 38.9912 93.5743 39.0889C94.1602 39.154 94.9089 39.2842 95.8204 39.4795C96.7318 39.6748 97.6921 39.9841 98.7012 40.4072C99.7429 40.8304 100.784 41.3838 101.826 42.0674C102.868 42.751 103.812 43.6136 104.658 44.6553C105.505 45.697 106.204 46.9339 106.758 48.3662C107.311 49.7985 107.62 51.475 107.686 53.3955C107.783 56.2601 107.523 58.8643 106.904 61.208C106.286 63.5518 105.325 65.5537 104.023 67.2139C102.754 68.874 101.143 70.1761 99.1895 71.1201C97.2364 72.0642 94.9577 72.585 92.3536 72.6826C90.3679 72.8454 88.4148 72.9919 86.4942 73.1221C85.6804 73.1872 84.8178 73.236 83.9063 73.2686C83.0274 73.3011 82.1485 73.3337 81.2696 73.3662C80.3907 73.3662 79.5443 73.35 78.7305 73.3174C77.9167 73.2849 77.168 73.236 76.4844 73.1709C77.2331 72.8128 77.8353 72.4548 78.2911 72.0967C78.7793 71.7386 79.1537 71.4294 79.4141 71.169C79.7071 70.8434 79.9187 70.5505 80.0489 70.2901C80.114 69.932 80.2116 69.2321 80.3419 68.1905C80.4395 67.3115 80.5697 66.0583 80.7325 64.4307C80.8952 62.8031 81.0905 60.5895 81.3184 57.7901L81.6114 54.3233C81.7741 52.1748 81.8392 50.417 81.8067 49.0498C81.8067 47.6826 81.7741 46.6084 81.709 45.8272C81.6114 44.9157 81.4812 44.2484 81.3184 43.8252C81.1882 43.4671 80.9441 43.044 80.586 42.5557C80.2605 42.1651 79.8047 41.6931 79.2188 41.1397C78.6654 40.5537 77.9167 39.9027 76.9727 39.1865ZM87.2754 57.1553C87.3405 60.0524 87.487 62.2822 87.7149 63.8448C87.9753 65.3747 88.252 66.514 88.545 67.2627C88.903 68.1091 89.2937 68.6136 89.7169 68.7764C90.3353 68.7764 91.0352 68.516 91.8165 67.9951C92.5977 67.4418 93.3627 66.6117 94.1114 65.5049C94.8926 64.3981 95.5925 63.0147 96.211 61.3545C96.862 59.6944 97.334 57.7575 97.627 55.544C97.92 53.3304 97.8386 51.3773 97.3829 49.6846C96.9271 47.9919 96.3249 46.5759 95.5762 45.4365C94.8275 44.2647 94.0626 43.3858 93.2813 42.7998C92.5001 42.1813 91.9141 41.8721 91.5235 41.8721C91.0678 41.8721 90.6609 42.0023 90.3028 42.2627C89.9447 42.4906 89.4402 43.0277 88.7891 43.874C88.4636 44.3298 88.1706 44.9808 87.9102 45.8272C87.6823 46.5759 87.487 47.5687 87.3243 48.8057C87.1615 50.0427 87.1127 51.6377 87.1778 53.5908L87.2754 57.1553Z" fill="#CA43FF"/>
<path d="M129.023 38.3574C131.204 38.6178 133.092 38.8131 134.688 38.9433C136.283 39.041 137.601 39.1223 138.643 39.1874C139.847 39.2526 140.856 39.2688 141.67 39.2363C142.516 39.2037 143.672 39.1223 145.137 38.9921C146.374 38.8945 148.001 38.7643 150.02 38.6015C152.038 38.4062 154.561 38.1458 157.588 37.8203C157.62 38.569 157.637 39.3014 157.637 40.0175C157.669 40.7011 157.702 41.3033 157.734 41.8242C157.767 42.4427 157.783 43.0123 157.783 43.5331C157.783 44.0865 157.751 44.7864 157.686 45.6328C157.62 46.3489 157.507 47.2604 157.344 48.3671C157.214 49.4414 157.002 50.7272 156.709 52.2246C156.253 50.4667 155.814 49.0507 155.391 47.9765C154.967 46.8697 154.577 45.9908 154.219 45.3398C153.828 44.5911 153.438 44.0214 153.047 43.6308C152.624 43.3378 152.119 43.0937 151.533 42.8984C151.012 42.7356 150.345 42.6054 149.531 42.5078C148.75 42.4101 147.822 42.4264 146.748 42.5566C146.585 46.8535 146.471 50.3365 146.406 53.0058C146.341 55.6751 146.292 57.7584 146.26 59.2558C146.227 61.0462 146.211 62.332 146.211 63.1132C146.243 64.22 146.423 65.3105 146.748 66.3847C147.008 67.2962 147.432 68.2402 148.018 69.2167C148.604 70.1933 149.45 71.0559 150.557 71.8046H144.6C144.046 71.8046 143.363 71.8372 142.549 71.9023C141.865 71.9674 140.986 72.0325 139.912 72.0976C138.87 72.1627 137.65 72.2766 136.25 72.4394C136.738 71.593 137.129 70.8281 137.422 70.1445C137.715 69.4609 137.943 68.8749 138.105 68.3867C138.301 67.8007 138.447 67.2799 138.545 66.8242C138.577 66.1731 138.659 64.8548 138.789 62.8691C138.822 62.0553 138.854 61.0462 138.887 59.8417C138.952 58.6373 139.017 57.205 139.082 55.5449C139.18 53.8847 139.261 51.9804 139.326 49.832C139.424 47.651 139.521 45.1933 139.619 42.4589C139.033 42.2962 138.48 42.3124 137.959 42.5078C137.438 42.6705 136.982 42.8821 136.592 43.1425C136.136 43.468 135.697 43.8587 135.273 44.3144C134.85 44.8678 134.378 45.5839 133.857 46.4628C133.402 47.2115 132.881 48.2044 132.295 49.4414C131.709 50.6458 131.042 52.1432 130.293 53.9335C130.13 52.0455 130.016 50.4993 129.951 49.2949C129.886 48.0579 129.837 47.0976 129.805 46.414C129.772 45.6002 129.756 44.998 129.756 44.6074C129.756 44.2493 129.723 43.7773 129.658 43.1914C129.593 42.7031 129.512 42.0683 129.414 41.2871C129.316 40.4733 129.186 39.4967 129.023 38.3574Z" fill="#CA43FF"/>
<path d="M100.598 26.9805C103.332 27.0586 105.598 27.1172 107.395 27.1562C109.23 27.1562 110.715 27.1562 111.848 27.1562H114.953H132.414C132.492 27.9375 132.551 28.6992 132.59 29.4414C132.668 30.1445 132.707 30.7695 132.707 31.3164C132.707 31.9805 132.688 32.5859 132.648 33.1328C132.609 33.6797 132.551 34.2656 132.473 34.8906C132.395 35.4375 132.316 36.0234 132.238 36.6484C132.16 37.2734 132.023 37.918 131.828 38.582C131.281 36.4727 130.539 34.8711 129.602 33.7773C128.703 32.6836 127.785 31.8828 126.848 31.375C125.754 30.7891 124.602 30.4766 123.391 30.4375C121.789 30.5156 120.539 30.6523 119.641 30.8477C118.742 31.043 118.039 31.3164 117.531 31.668C117.023 32.0195 116.633 32.4297 116.359 32.8984C116.125 33.3281 115.871 33.8164 115.598 34.3633C115.363 34.832 115.148 35.5547 114.953 36.5312C114.758 37.3516 114.562 38.4648 114.367 39.8711C114.211 41.2773 114.035 43.0938 113.84 45.3203C114.895 45.0078 115.734 44.7148 116.359 44.4414C117.023 44.168 117.551 43.9336 117.941 43.7383C118.371 43.5039 118.684 43.2891 118.879 43.0938C119.035 42.8594 119.27 42.4297 119.582 41.8047C119.816 41.2578 120.129 40.5156 120.52 39.5781C120.949 38.6406 121.457 37.3516 122.043 35.7109C122.121 37.5078 122.16 39.0117 122.16 40.2227C122.16 41.3945 122.18 42.3516 122.219 43.0938C122.219 43.9531 122.238 44.6367 122.277 45.1445V47.3711C122.277 48.1914 122.277 49.3047 122.277 50.7109C122.316 52.0781 122.375 53.8164 122.453 55.9258C121.984 54.4805 121.555 53.3477 121.164 52.5273C120.812 51.668 120.5 51.0234 120.227 50.5938C119.914 50.0859 119.641 49.7344 119.406 49.5391C119.133 49.4609 118.762 49.3828 118.293 49.3047C117.863 49.2656 117.316 49.2461 116.652 49.2461C116.027 49.2461 115.227 49.3438 114.25 49.5391C114.133 51.6875 114.113 53.4258 114.191 54.7539C114.309 56.043 114.465 57.0391 114.66 57.7422C114.855 58.5625 115.09 59.1484 115.363 59.5C115.715 59.8516 116.418 60.1445 117.473 60.3789C118.527 60.5742 119.719 60.6523 121.047 60.6133C122.414 60.5352 123.801 60.3008 125.207 59.9102C126.613 59.5195 127.863 58.875 128.957 57.9766C129.777 57.2344 130.656 56.2969 131.594 55.1641C132.375 54.1875 133.234 52.957 134.172 51.4727C135.148 49.9883 136.105 48.1914 137.043 46.082C136.887 47.8398 136.77 49.3047 136.691 50.4766C136.652 51.6094 136.594 52.5273 136.516 53.2305C136.438 54.0508 136.379 54.6758 136.34 55.1055C136.34 55.5742 136.281 56.2383 136.164 57.0977C136.086 57.8398 135.949 58.8555 135.754 60.1445C135.598 61.3945 135.383 62.9961 135.109 64.9492C133.273 64.9883 131.535 65.0273 129.895 65.0664C128.254 65.0664 126.809 65.0859 125.559 65.125C124.074 65.1641 122.707 65.2031 121.457 65.2422C120.168 65.2422 118.742 65.3008 117.18 65.418C115.812 65.4961 114.191 65.6133 112.316 65.7695C110.48 65.9258 108.449 66.1406 106.223 66.4141C106.418 63.7578 106.555 61.2578 106.633 58.9141C106.75 56.5312 106.828 54.4414 106.867 52.6445C106.906 50.5352 106.906 48.582 106.867 46.7852C107.062 42.293 106.984 38.6602 106.633 35.8867C106.281 33.1133 105.871 31.3359 105.402 30.5547C105.168 30.2813 104.836 29.9492 104.406 29.5586C104.055 29.2461 103.566 28.875 102.941 28.4453C102.316 28.0156 101.535 27.5273 100.598 26.9805Z" fill="#CA43FF"/>
<path d="M6.8125 102H2.125V86H7.09375C8.61979 86 9.92448 86.3177 11.0078 86.9531C12.0964 87.5885 12.9297 88.5 13.5078 89.6875C14.0859 90.875 14.375 92.2995 14.375 93.9609C14.375 95.638 14.0781 97.0781 13.4844 98.2812C12.8958 99.4792 12.0365 100.398 10.9063 101.039C9.78125 101.68 8.41667 102 6.8125 102ZM3.58594 100.687H6.72656C8.10156 100.687 9.2526 100.417 10.1797 99.875C11.1068 99.3333 11.8021 98.5599 12.2656 97.5547C12.7292 96.5495 12.9609 95.3516 12.9609 93.9609C12.9557 92.5807 12.7266 91.3932 12.2734 90.3984C11.8255 89.4036 11.1589 88.6406 10.2734 88.1094C9.39323 87.5781 8.30469 87.3125 7.00781 87.3125H3.58594V100.687ZM22.291 102.25C21.2546 102.25 20.3379 101.987 19.541 101.461C18.7493 100.935 18.1296 100.208 17.6816 99.2812C17.2337 98.349 17.0098 97.2734 17.0098 96.0547C17.0098 94.8255 17.2337 93.7448 17.6816 92.8125C18.1296 91.875 18.7493 91.1458 19.541 90.625C20.3379 90.099 21.2546 89.8359 22.291 89.8359C23.3275 89.8359 24.2415 90.099 25.0332 90.625C25.8249 91.151 26.4447 91.8802 26.8926 92.8125C27.3457 93.7448 27.5723 94.8255 27.5723 96.0547C27.5723 97.2734 27.3483 98.349 26.9004 99.2812C26.4525 100.208 25.8301 100.935 25.0332 101.461C24.2415 101.987 23.3275 102.25 22.291 102.25ZM22.291 100.977C23.1243 100.977 23.8301 100.753 24.4082 100.305C24.9863 99.8568 25.4238 99.2604 25.7207 98.5156C26.0228 97.7708 26.1738 96.9505 26.1738 96.0547C26.1738 95.1589 26.0228 94.3359 25.7207 93.5859C25.4238 92.8359 24.9863 92.2344 24.4082 91.7812C23.8301 91.3281 23.1243 91.1016 22.291 91.1016C21.4629 91.1016 20.7572 91.3281 20.1738 91.7812C19.5957 92.2344 19.1556 92.8359 18.8535 93.5859C18.5566 94.3359 18.4082 95.1589 18.4082 96.0547C18.4082 96.9505 18.5566 97.7708 18.8535 98.5156C19.1556 99.2604 19.5957 99.8568 20.1738 100.305C20.752 100.753 21.4577 100.977 22.291 100.977ZM32.0156 86V102H30.625V86H32.0156ZM40.3828 102.25C39.3099 102.25 38.375 101.982 37.5781 101.445C36.7865 100.909 36.1719 100.174 35.7344 99.2422C35.2969 98.3099 35.0781 97.2474 35.0781 96.0547C35.0781 94.8516 35.2995 93.7812 35.7422 92.8437C36.1901 91.9062 36.8099 91.1719 37.6016 90.6406C38.3932 90.1042 39.3125 89.8359 40.3594 89.8359C41.1615 89.8359 41.888 89.9922 42.5391 90.3047C43.1901 90.612 43.7266 91.0469 44.1484 91.6094C44.5755 92.1667 44.8438 92.8177 44.9531 93.5625H43.5469C43.401 92.8854 43.0495 92.3073 42.4922 91.8281C41.9401 91.3437 41.237 91.1016 40.3828 91.1016C39.6172 91.1016 38.9401 91.3099 38.3516 91.7266C37.763 92.138 37.3021 92.7135 36.9688 93.4531C36.6406 94.1875 36.4766 95.0391 36.4766 96.0078C36.4766 96.9818 36.638 97.8437 36.9609 98.5937C37.2839 99.3385 37.737 99.9219 38.3203 100.344C38.9089 100.766 39.5964 100.977 40.3828 100.977C40.9141 100.977 41.3984 100.878 41.8359 100.68C42.2786 100.477 42.6484 100.19 42.9453 99.8203C43.2474 99.4505 43.4505 99.0104 43.5547 98.5H44.9609C44.8568 99.224 44.599 99.8698 44.1875 100.438C43.7813 101 43.2526 101.443 42.6016 101.766C41.9557 102.089 41.2161 102.25 40.3828 102.25ZM52.793 102.25C51.6732 102.25 50.7044 101.99 49.8867 101.469C49.069 100.943 48.4362 100.216 47.9883 99.2891C47.5456 98.3568 47.3242 97.2839 47.3242 96.0703C47.3242 94.862 47.5456 93.7891 47.9883 92.8516C48.4362 91.9089 49.0534 91.1719 49.8398 90.6406C50.6315 90.1042 51.5456 89.8359 52.582 89.8359C53.2331 89.8359 53.8607 89.9557 54.4648 90.1953C55.069 90.4297 55.6107 90.7917 56.0898 91.2812C56.5742 91.7656 56.957 92.3776 57.2383 93.1172C57.5195 93.8516 57.6602 94.7214 57.6602 95.7266V96.4141H48.2852V95.1875H56.2383C56.2383 94.4167 56.082 93.724 55.7695 93.1094C55.4622 92.4896 55.0326 92 54.4805 91.6406C53.9336 91.2812 53.3008 91.1016 52.582 91.1016C51.8216 91.1016 51.1523 91.3047 50.5742 91.7109C49.9961 92.1172 49.543 92.6536 49.2148 93.3203C48.8919 93.987 48.7279 94.7161 48.7227 95.5078V96.2422C48.7227 97.1953 48.8867 98.0286 49.2148 98.7422C49.5482 99.4505 50.0195 100 50.6289 100.391C51.2383 100.781 51.9596 100.977 52.793 100.977C53.3607 100.977 53.8581 100.888 54.2852 100.711C54.7174 100.534 55.0794 100.297 55.3711 100C55.668 99.6979 55.8919 99.3672 56.043 99.0078L57.3633 99.4375C57.181 99.9427 56.8815 100.409 56.4648 100.836C56.0534 101.263 55.5378 101.607 54.918 101.867C54.3034 102.122 53.5951 102.25 52.793 102.25ZM66.2324 87.3125V86H77.834V87.3125H72.7637V102H71.3027V87.3125H66.2324ZM83.9453 102.25C82.8255 102.25 81.8568 101.99 81.0391 101.469C80.2214 100.943 79.5885 100.216 79.1406 99.2891C78.6979 98.3568 78.4766 97.2839 78.4766 96.0703C78.4766 94.862 78.6979 93.7891 79.1406 92.8516C79.5885 91.9089 80.2057 91.1719 80.9922 90.6406C81.7839 90.1042 82.6979 89.8359 83.7344 89.8359C84.3854 89.8359 85.013 89.9557 85.6172 90.1953C86.2214 90.4297 86.763 90.7917 87.2422 91.2812C87.7266 91.7656 88.1094 92.3776 88.3906 93.1172C88.6719 93.8516 88.8125 94.7214 88.8125 95.7266V96.4141H79.4375V95.1875H87.3906C87.3906 94.4167 87.2344 93.724 86.9219 93.1094C86.6146 92.4896 86.1849 92 85.6328 91.6406C85.0859 91.2812 84.4531 91.1016 83.7344 91.1016C82.974 91.1016 82.3047 91.3047 81.7266 91.7109C81.1484 92.1172 80.6953 92.6536 80.3672 93.3203C80.0443 93.987 79.8802 94.7161 79.875 95.5078V96.2422C79.875 97.1953 80.0391 98.0286 80.3672 98.7422C80.7005 99.4505 81.1719 100 81.7813 100.391C82.3906 100.781 83.112 100.977 83.9453 100.977C84.513 100.977 85.0104 100.888 85.4375 100.711C85.8698 100.534 86.2318 100.297 86.5234 100C86.8203 99.6979 87.0443 99.3672 87.1953 99.0078L88.5156 99.4375C88.3333 99.9427 88.0339 100.409 87.6172 100.836C87.2057 101.263 86.6901 101.607 86.0703 101.867C85.4557 102.122 84.7474 102.25 83.9453 102.25ZM91.877 102V90H93.2285V91.8437H93.3301C93.5697 91.2396 93.9863 90.7526 94.5801 90.3828C95.179 90.0078 95.8561 89.8203 96.6113 89.8203C96.7259 89.8203 96.8535 89.8229 96.9941 89.8281C97.1348 89.8333 97.252 89.8385 97.3457 89.8438V91.2578C97.2832 91.2474 97.1738 91.2318 97.0176 91.2109C96.8613 91.1901 96.6921 91.1797 96.5098 91.1797C95.8848 91.1797 95.3275 91.3125 94.8379 91.5781C94.3535 91.8385 93.9707 92.2005 93.6895 92.6641C93.4082 93.1276 93.2676 93.6562 93.2676 94.25V102H91.877ZM99.7188 102V90H101.07V91.8437H101.172C101.411 91.2396 101.828 90.7526 102.422 90.3828C103.021 90.0078 103.698 89.8203 104.453 89.8203C104.568 89.8203 104.695 89.8229 104.836 89.8281C104.977 89.8333 105.094 89.8385 105.188 89.8438V91.2578C105.125 91.2474 105.016 91.2318 104.859 91.2109C104.703 91.1901 104.534 91.1797 104.352 91.1797C103.727 91.1797 103.169 91.3125 102.68 91.5781C102.195 91.8385 101.813 92.2005 101.531 92.6641C101.25 93.1276 101.109 93.6562 101.109 94.25V102H99.7188ZM110.912 102.273C110.188 102.273 109.527 102.133 108.928 101.852C108.329 101.565 107.852 101.154 107.498 100.617C107.144 100.076 106.967 99.4193 106.967 98.6484C106.967 98.0547 107.079 97.5547 107.303 97.1484C107.527 96.7422 107.844 96.4089 108.256 96.1484C108.667 95.888 109.154 95.6823 109.717 95.5312C110.279 95.3802 110.899 95.263 111.576 95.1797C112.248 95.0964 112.816 95.0234 113.279 94.9609C113.748 94.8984 114.105 94.7995 114.35 94.6641C114.594 94.5286 114.717 94.3099 114.717 94.0078V93.7266C114.717 92.9089 114.472 92.2656 113.982 91.7969C113.498 91.3229 112.8 91.0859 111.889 91.0859C111.024 91.0859 110.318 91.276 109.771 91.6562C109.23 92.0365 108.85 92.4844 108.631 93L107.311 92.5234C107.581 91.8672 107.956 91.3437 108.436 90.9531C108.915 90.5573 109.451 90.2734 110.045 90.1016C110.639 89.9245 111.24 89.8359 111.85 89.8359C112.308 89.8359 112.785 89.8958 113.279 90.0156C113.779 90.1354 114.243 90.3437 114.67 90.6406C115.097 90.9323 115.443 91.3411 115.709 91.8672C115.975 92.388 116.107 93.0495 116.107 93.8516V102H114.717V100.102H114.631C114.464 100.456 114.217 100.799 113.889 101.133C113.561 101.466 113.149 101.74 112.654 101.953C112.16 102.167 111.579 102.273 110.912 102.273ZM111.1 101C111.839 101 112.48 100.836 113.021 100.508C113.563 100.18 113.98 99.7448 114.271 99.2031C114.568 98.6562 114.717 98.0547 114.717 97.3984V95.6641C114.613 95.763 114.438 95.8516 114.193 95.9297C113.954 96.0078 113.675 96.0781 113.357 96.1406C113.045 96.1979 112.732 96.2474 112.42 96.2891C112.107 96.3307 111.826 96.3672 111.576 96.3984C110.899 96.4818 110.321 96.612 109.842 96.7891C109.363 96.9661 108.995 97.2109 108.74 97.5234C108.485 97.8307 108.357 98.2266 108.357 98.7109C108.357 99.4401 108.618 100.005 109.139 100.406C109.66 100.802 110.313 101 111.1 101ZM126.283 102V86H135.564V87.3125H127.744V93.3359H135.072V94.6484H127.744V100.687H135.721V102H126.283ZM139.916 90L143.01 95.1172L146.104 90H147.721L143.861 96L147.721 102H146.104L143.01 97.0469L139.916 102H138.307L142.119 96L138.307 90H139.916ZM150.637 106.5V90H151.988V92.2891H152.152C152.319 91.9297 152.548 91.5625 152.84 91.1875C153.132 90.8073 153.517 90.487 153.996 90.2266C154.48 89.9661 155.09 89.8359 155.824 89.8359C156.814 89.8359 157.678 90.0964 158.418 90.6172C159.163 91.1328 159.741 91.8568 160.152 92.7891C160.569 93.7161 160.777 94.7969 160.777 96.0313C160.777 97.2708 160.569 98.3568 160.152 99.2891C159.741 100.221 159.163 100.948 158.418 101.469C157.678 101.99 156.819 102.25 155.84 102.25C155.116 102.25 154.509 102.12 154.02 101.859C153.535 101.599 153.142 101.279 152.84 100.898C152.543 100.513 152.314 100.138 152.152 99.7734H152.027V106.5H150.637ZM152.012 96.0078C152.012 96.9766 152.155 97.8359 152.441 98.5859C152.733 99.3307 153.15 99.9167 153.691 100.344C154.238 100.766 154.9 100.977 155.676 100.977C156.473 100.977 157.145 100.758 157.691 100.32C158.243 99.8776 158.663 99.2812 158.949 98.5313C159.241 97.7812 159.387 96.9401 159.387 96.0078C159.387 95.0859 159.243 94.2552 158.957 93.5156C158.676 92.776 158.259 92.1901 157.707 91.7578C157.155 91.3203 156.478 91.1016 155.676 91.1016C154.895 91.1016 154.23 91.3125 153.684 91.7344C153.137 92.151 152.72 92.7292 152.434 93.4687C152.152 94.2031 152.012 95.0495 152.012 96.0078ZM168.68 102.25C167.56 102.25 166.591 101.99 165.773 101.469C164.956 100.943 164.323 100.216 163.875 99.2891C163.432 98.3568 163.211 97.2839 163.211 96.0703C163.211 94.862 163.432 93.7891 163.875 92.8516C164.323 91.9089 164.94 91.1719 165.727 90.6406C166.518 90.1042 167.432 89.8359 168.469 89.8359C169.12 89.8359 169.747 89.9557 170.352 90.1953C170.956 90.4297 171.497 90.7917 171.977 91.2812C172.461 91.7656 172.844 92.3776 173.125 93.1172C173.406 93.8516 173.547 94.7214 173.547 95.7266V96.4141H164.172V95.1875H172.125C172.125 94.4167 171.969 93.724 171.656 93.1094C171.349 92.4896 170.919 92 170.367 91.6406C169.82 91.2812 169.188 91.1016 168.469 91.1016C167.708 91.1016 167.039 91.3047 166.461 91.7109C165.883 92.1172 165.43 92.6536 165.102 93.3203C164.779 93.987 164.615 94.7161 164.609 95.5078V96.2422C164.609 97.1953 164.773 98.0286 165.102 98.7422C165.435 99.4505 165.906 100 166.516 100.391C167.125 100.781 167.846 100.977 168.68 100.977C169.247 100.977 169.745 100.888 170.172 100.711C170.604 100.534 170.966 100.297 171.258 100C171.555 99.6979 171.779 99.3672 171.93 99.0078L173.25 99.4375C173.068 99.9427 172.768 100.409 172.352 100.836C171.94 101.263 171.424 101.607 170.805 101.867C170.19 102.122 169.482 102.25 168.68 102.25ZM180.932 102.25C179.947 102.25 179.085 101.99 178.346 101.469C177.606 100.948 177.028 100.221 176.611 99.2891C176.2 98.3568 175.994 97.2708 175.994 96.0313C175.994 94.7969 176.2 93.7161 176.611 92.7891C177.028 91.8568 177.609 91.1328 178.354 90.6172C179.098 90.0964 179.965 89.8359 180.955 89.8359C181.684 89.8359 182.291 89.9661 182.775 90.2266C183.26 90.4818 183.648 90.7995 183.939 91.1797C184.231 91.5599 184.458 91.9297 184.619 92.2891H184.744V86H186.143V102H184.783V99.7734H184.619C184.458 100.138 184.229 100.513 183.932 100.898C183.635 101.279 183.242 101.599 182.752 101.859C182.268 102.12 181.661 102.25 180.932 102.25ZM181.096 100.977C181.872 100.977 182.533 100.766 183.08 100.344C183.627 99.9167 184.044 99.3307 184.33 98.5859C184.622 97.8359 184.768 96.9766 184.768 96.0078C184.768 95.0495 184.624 94.2031 184.338 93.4687C184.051 92.7292 183.635 92.151 183.088 91.7344C182.541 91.3125 181.877 91.1016 181.096 91.1016C180.294 91.1016 179.617 91.3203 179.064 91.7578C178.518 92.1901 178.101 92.776 177.814 93.5156C177.533 94.2552 177.393 95.0859 177.393 96.0078C177.393 96.9401 177.536 97.7812 177.822 98.5313C178.109 99.2812 178.525 99.8776 179.072 100.32C179.624 100.758 180.299 100.977 181.096 100.977ZM190.119 102V90H191.518V102H190.119ZM190.83 87.9375C190.544 87.9375 190.299 87.8411 190.096 87.6484C189.893 87.4505 189.791 87.2135 189.791 86.9375C189.791 86.6615 189.893 86.4271 190.096 86.2344C190.299 86.0365 190.544 85.9375 190.83 85.9375C191.117 85.9375 191.361 86.0365 191.564 86.2344C191.768 86.4271 191.869 86.6615 191.869 86.9375C191.869 87.2135 191.768 87.4505 191.564 87.6484C191.361 87.8411 191.117 87.9375 190.83 87.9375ZM199.922 90V91.2109H194.195V90H199.922ZM195.984 87.125H197.383V98.8672C197.383 99.3672 197.469 99.7604 197.641 100.047C197.813 100.328 198.036 100.529 198.313 100.648C198.589 100.763 198.883 100.82 199.195 100.82C199.378 100.82 199.534 100.81 199.664 100.789C199.794 100.763 199.909 100.737 200.008 100.711L200.305 101.969C200.169 102.021 200.003 102.068 199.805 102.109C199.607 102.156 199.362 102.18 199.07 102.18C198.56 102.18 198.068 102.068 197.594 101.844C197.125 101.62 196.74 101.286 196.438 100.844C196.135 100.401 195.984 99.8516 195.984 99.1953V87.125ZM203.096 102V90H204.494V102H203.096ZM203.807 87.9375C203.52 87.9375 203.275 87.8411 203.072 87.6484C202.869 87.4505 202.768 87.2135 202.768 86.9375C202.768 86.6615 202.869 86.4271 203.072 86.2344C203.275 86.0365 203.52 85.9375 203.807 85.9375C204.093 85.9375 204.338 86.0365 204.541 86.2344C204.744 86.4271 204.846 86.6615 204.846 86.9375C204.846 87.2135 204.744 87.4505 204.541 87.6484C204.338 87.8411 204.093 87.9375 203.807 87.9375ZM212.836 102.25C211.799 102.25 210.883 101.987 210.086 101.461C209.294 100.935 208.674 100.208 208.227 99.2812C207.779 98.349 207.555 97.2734 207.555 96.0547C207.555 94.8255 207.779 93.7448 208.227 92.8125C208.674 91.875 209.294 91.1458 210.086 90.625C210.883 90.099 211.799 89.8359 212.836 89.8359C213.872 89.8359 214.786 90.099 215.578 90.625C216.37 91.151 216.99 91.8802 217.438 92.8125C217.891 93.7448 218.117 94.8255 218.117 96.0547C218.117 97.2734 217.893 98.349 217.445 99.2812C216.997 100.208 216.375 100.935 215.578 101.461C214.786 101.987 213.872 102.25 212.836 102.25ZM212.836 100.977C213.669 100.977 214.375 100.753 214.953 100.305C215.531 99.8568 215.969 99.2604 216.266 98.5156C216.568 97.7708 216.719 96.9505 216.719 96.0547C216.719 95.1589 216.568 94.3359 216.266 93.5859C215.969 92.8359 215.531 92.2344 214.953 91.7812C214.375 91.3281 213.669 91.1016 212.836 91.1016C212.008 91.1016 211.302 91.3281 210.719 91.7812C210.141 92.2344 209.701 92.8359 209.398 93.5859C209.102 94.3359 208.953 95.1589 208.953 96.0547C208.953 96.9505 209.102 97.7708 209.398 98.5156C209.701 99.2604 210.141 99.8568 210.719 100.305C211.297 100.753 212.003 100.977 212.836 100.977ZM222.561 94.5V102H221.17V90H222.521V91.8828H222.646C222.928 91.2682 223.365 90.776 223.959 90.4063C224.558 90.0313 225.298 89.8438 226.178 89.8438C226.985 89.8438 227.693 90.013 228.303 90.3516C228.917 90.6849 229.394 91.1771 229.732 91.8281C230.076 92.4792 230.248 93.2786 230.248 94.2266V102H228.857V94.3125C228.857 93.3281 228.581 92.5495 228.029 91.9766C227.482 91.4036 226.748 91.1172 225.826 91.1172C225.196 91.1172 224.636 91.2526 224.146 91.5234C223.657 91.7943 223.269 92.1849 222.982 92.6953C222.701 93.2005 222.561 93.8021 222.561 94.5ZM241.973 92.6328L240.699 92.9922C240.574 92.6328 240.397 92.3073 240.168 92.0156C239.939 91.724 239.639 91.4922 239.27 91.3203C238.905 91.1484 238.452 91.0625 237.91 91.0625C237.098 91.0625 236.431 91.2552 235.91 91.6406C235.389 92.026 235.129 92.5234 235.129 93.1328C235.129 93.6484 235.306 94.0677 235.66 94.3906C236.02 94.7083 236.572 94.9609 237.316 95.1484L239.129 95.5937C240.134 95.8385 240.887 96.2266 241.387 96.7578C241.892 97.2891 242.145 97.9557 242.145 98.7578C242.145 99.4349 241.957 100.036 241.582 100.562C241.207 101.089 240.684 101.503 240.012 101.805C239.345 102.102 238.572 102.25 237.691 102.25C236.52 102.25 235.553 101.987 234.793 101.461C234.033 100.93 233.546 100.164 233.332 99.1641L234.668 98.8359C234.84 99.5495 235.176 100.089 235.676 100.453C236.181 100.818 236.845 101 237.668 101C238.59 101 239.327 100.794 239.879 100.383C240.431 99.9661 240.707 99.4453 240.707 98.8203C240.707 98.3359 240.546 97.9297 240.223 97.6016C239.9 97.2682 239.41 97.0234 238.754 96.8672L236.793 96.3984C235.751 96.1484 234.98 95.7526 234.48 95.2109C233.98 94.6693 233.73 93.9974 233.73 93.1953C233.73 92.5339 233.91 91.9531 234.27 91.4531C234.629 90.9479 235.124 90.5521 235.754 90.2656C236.384 89.9792 237.103 89.8359 237.91 89.8359C239.009 89.8359 239.887 90.0859 240.543 90.5859C241.204 91.0807 241.681 91.763 241.973 92.6328Z" fill="#CA43FF"/>
<path d="M132 14.5922C132 14.1912 131.83 13.8088 131.531 13.5417L129.87 12.0556L130.302 10.039C130.323 9.94129 130.334 9.84256 130.334 9.7439C130.334 9.32255 130.144 8.91689 129.808 8.64592C129.553 8.44048 129.239 8.33417 128.923 8.33417C128.726 8.33417 128.527 8.37597 128.341 8.45991L128.334 8.4637L123.172 10.9415C122.777 10.3119 122.279 9.75239 121.703 9.28839C120.555 8.36073 119.089 7.80469 117.5 7.80469C115.895 7.80469 114.416 8.37217 113.263 9.31547C112.697 9.7776 112.21 10.3318 111.82 10.9548L106.667 8.46421L106.659 8.46042C106.473 8.37597 106.274 8.33417 106.076 8.33417C105.76 8.33417 105.447 8.44048 105.192 8.64592C104.856 8.91689 104.666 9.32255 104.666 9.7439C104.666 9.84256 104.677 9.94129 104.698 10.04L105.13 12.0566L103.47 13.5417C103.171 13.8093 103 14.1917 103 14.5922C103 14.9931 103.171 15.3755 103.47 15.6427L105.13 17.1288L104.698 19.1454C104.677 19.2436 104.666 19.3432 104.666 19.4405C104.666 19.8628 104.856 20.268 105.192 20.5389C105.447 20.7439 105.761 20.8502 106.077 20.8502C106.274 20.8502 106.472 20.8094 106.658 20.7244L106.668 20.7201L111.91 18.1869C112.303 18.7809 112.786 19.3086 113.342 19.7494C114.483 20.6547 115.932 21.197 117.5 21.1965C119.023 21.197 120.434 20.6855 121.559 19.8267C122.153 19.3736 122.665 18.8213 123.079 18.1978L128.333 20.7206L128.341 20.7244C128.528 20.8084 128.726 20.8502 128.924 20.8502C129.239 20.8502 129.553 20.7439 129.808 20.5384C130.144 20.2675 130.334 19.8628 130.334 19.4405C130.334 19.3427 130.323 19.2431 130.302 19.1444L129.87 17.1288L131.531 15.6428C131.83 15.3755 132 14.9931 132 14.5922ZM128.256 16.603L128.843 19.3375L123.755 16.8939C123.821 16.7202 123.881 16.5437 123.933 16.3634C124.046 15.9739 123.821 15.5667 123.432 15.4548C123.043 15.3418 122.636 15.5662 122.524 15.9554C122.209 17.0438 121.549 17.9885 120.668 18.6599C119.788 19.3313 118.694 19.729 117.5 19.729C116.271 19.729 115.148 19.3071 114.254 18.5997C113.361 17.8917 112.706 16.8982 112.424 15.7613C112.327 15.3674 111.929 15.1278 111.535 15.2251C111.143 15.3219 110.902 15.72 111 16.1134C111.065 16.3757 111.146 16.6315 111.24 16.8811L106.157 19.337L106.743 16.603L104.497 14.5922L106.743 12.5818L106.157 9.84783L111.183 12.2763C111.089 12.5415 111.013 12.8129 110.953 13.0919C110.868 13.4885 111.12 13.8786 111.517 13.9631C111.913 14.0485 112.303 13.7956 112.388 13.3994C112.64 12.2213 113.291 11.1893 114.192 10.4515C115.095 9.7141 116.242 9.27282 117.5 9.27282C118.745 9.27282 119.883 9.70555 120.781 10.4301C121.679 11.1551 122.332 12.1706 122.598 13.3311C122.687 13.7259 123.081 13.9731 123.476 13.883C123.871 13.7933 124.118 13.3994 124.028 13.0043C123.97 12.7514 123.897 12.5042 123.811 12.2631L128.843 9.84749L128.256 12.5815L130.503 14.5924L128.256 16.603Z" fill="#CA43FF"/>
</svg>
