<svg width="244" height="107" viewBox="0 0 244 107" fill="none" xmlns="http://www.w3.org/2000/svg">
<path d="M76.9746 39.1855C78.1139 39.3483 79.1068 39.4785 79.9531 39.5762C80.7995 39.6738 81.4993 39.7552 82.0527 39.8203C82.7038 39.8854 83.2572 39.9342 83.7129 39.9668C84.2337 40.0319 84.8685 39.9993 85.6172 39.8691C86.3984 39.7389 87.2285 39.6087 88.1074 39.4785C88.9863 39.3158 89.8978 39.1855 90.8418 39.0879C91.7858 38.9902 92.6973 38.9902 93.5762 39.0879C94.1621 39.153 94.9108 39.2832 95.8223 39.4785C96.7337 39.6738 97.694 39.9831 98.7031 40.4062C99.7448 40.8294 100.786 41.3828 101.828 42.0664C102.87 42.75 103.814 43.6126 104.66 44.6543C105.507 45.696 106.206 46.9329 106.76 48.3652C107.313 49.7975 107.622 51.474 107.688 53.3945C107.785 56.2591 107.525 58.8633 106.906 61.207C106.288 63.5508 105.327 65.5527 104.025 67.2129C102.756 68.873 101.145 70.1751 99.1914 71.1191C97.2383 72.0632 94.9596 72.584 92.3555 72.6816C90.3698 72.8444 88.4167 72.9909 86.4961 73.1211C85.6823 73.1862 84.8197 73.235 83.9082 73.2676C83.0293 73.3001 82.1504 73.3327 81.2715 73.3652C80.3926 73.3652 79.5462 73.349 78.7324 73.3164C77.9186 73.2839 77.1699 73.235 76.4863 73.1699C77.235 72.8118 77.8372 72.4538 78.293 72.0957C78.7812 71.7376 79.1556 71.4284 79.416 71.168C79.709 70.8424 79.9206 70.5495 80.0508 70.2891C80.1159 69.931 80.2135 69.2311 80.3438 68.1895C80.4414 67.3105 80.5716 66.0573 80.7344 64.4297C80.8971 62.8021 81.0924 60.5885 81.3203 57.7891L81.6133 54.3223C81.776 52.1738 81.8411 50.416 81.8086 49.0488C81.8086 47.6816 81.776 46.6074 81.7109 45.8262C81.6133 44.9147 81.4831 44.2474 81.3203 43.8242C81.1901 43.4661 80.946 43.043 80.5879 42.5547C80.2624 42.1641 79.8066 41.6921 79.2207 41.1387C78.6673 40.5527 77.9186 39.9017 76.9746 39.1855ZM87.2773 57.1543C87.3424 60.0514 87.4889 62.2812 87.7168 63.8438C87.9772 65.3737 88.2539 66.513 88.5469 67.2617C88.9049 68.1081 89.2956 68.6126 89.7188 68.7754C90.3372 68.7754 91.0371 68.515 91.8184 67.9941C92.5996 67.4408 93.3646 66.6107 94.1133 65.5039C94.8945 64.3971 95.5944 63.0137 96.2129 61.3535C96.8639 59.6934 97.3359 57.7565 97.6289 55.543C97.9219 53.3294 97.8405 51.3763 97.3848 49.6836C96.929 47.9909 96.3268 46.5749 95.5781 45.4355C94.8294 44.2637 94.0645 43.3848 93.2832 42.7988C92.502 42.1803 91.916 41.8711 91.5254 41.8711C91.0697 41.8711 90.6628 42.0013 90.3047 42.2617C89.9466 42.4896 89.4421 43.0267 88.791 43.873C88.4655 44.3288 88.1725 44.9798 87.9121 45.8262C87.6842 46.5749 87.4889 47.5677 87.3262 48.8047C87.1634 50.0417 87.1146 51.6367 87.1797 53.5898L87.2773 57.1543Z" fill="white"/>
<path d="M129.023 38.3555C131.204 38.6159 133.092 38.8112 134.688 38.9414C136.283 39.0391 137.601 39.1204 138.643 39.1855C139.847 39.2507 140.856 39.2669 141.67 39.2344C142.516 39.2018 143.672 39.1204 145.137 38.9902C146.374 38.8926 148.001 38.7624 150.02 38.5996C152.038 38.4043 154.561 38.1439 157.588 37.8184C157.62 38.5671 157.637 39.2995 157.637 40.0156C157.669 40.6992 157.702 41.3014 157.734 41.8223C157.767 42.4408 157.783 43.0104 157.783 43.5312C157.783 44.0846 157.751 44.7845 157.686 45.6309C157.62 46.347 157.507 47.2585 157.344 48.3652C157.214 49.4395 157.002 50.7253 156.709 52.2227C156.253 50.4648 155.814 49.0488 155.391 47.9746C154.967 46.8678 154.577 45.9889 154.219 45.3379C153.828 44.5892 153.438 44.0195 153.047 43.6289C152.624 43.3359 152.119 43.0918 151.533 42.8965C151.012 42.7337 150.345 42.6035 149.531 42.5059C148.75 42.4082 147.822 42.4245 146.748 42.5547C146.585 46.8516 146.471 50.3346 146.406 53.0039C146.341 55.6732 146.292 57.7565 146.26 59.2539C146.227 61.0443 146.211 62.3301 146.211 63.1113C146.243 64.2181 146.423 65.3086 146.748 66.3828C147.008 67.2943 147.432 68.2383 148.018 69.2148C148.604 70.1914 149.45 71.054 150.557 71.8027H144.6C144.046 71.8027 143.363 71.8353 142.549 71.9004C141.865 71.9655 140.986 72.0306 139.912 72.0957C138.87 72.1608 137.65 72.2747 136.25 72.4375C136.738 71.5911 137.129 70.8262 137.422 70.1426C137.715 69.459 137.943 68.873 138.105 68.3848C138.301 67.7988 138.447 67.278 138.545 66.8223C138.577 66.1712 138.659 64.8529 138.789 62.8672C138.822 62.0534 138.854 61.0443 138.887 59.8398C138.952 58.6354 139.017 57.2031 139.082 55.543C139.18 53.8828 139.261 51.9785 139.326 49.8301C139.424 47.6491 139.521 45.1914 139.619 42.457C139.033 42.2943 138.48 42.3105 137.959 42.5059C137.438 42.6686 136.982 42.8802 136.592 43.1406C136.136 43.4661 135.697 43.8568 135.273 44.3125C134.85 44.8659 134.378 45.582 133.857 46.4609C133.402 47.2096 132.881 48.2025 132.295 49.4395C131.709 50.6439 131.042 52.1413 130.293 53.9316C130.13 52.0436 130.016 50.4974 129.951 49.293C129.886 48.056 129.837 47.0957 129.805 46.4121C129.772 45.5983 129.756 44.9961 129.756 44.6055C129.756 44.2474 129.723 43.7754 129.658 43.1895C129.593 42.7012 129.512 42.0664 129.414 41.2852C129.316 40.4714 129.186 39.4948 129.023 38.3555Z" fill="white"/>
<path d="M100.598 26.9805C103.332 27.0586 105.598 27.1172 107.395 27.1562C109.23 27.1562 110.715 27.1562 111.848 27.1562H114.953H132.414C132.492 27.9375 132.551 28.6992 132.59 29.4414C132.668 30.1445 132.707 30.7695 132.707 31.3164C132.707 31.9805 132.688 32.5859 132.648 33.1328C132.609 33.6797 132.551 34.2656 132.473 34.8906C132.395 35.4375 132.316 36.0234 132.238 36.6484C132.16 37.2734 132.023 37.918 131.828 38.582C131.281 36.4727 130.539 34.8711 129.602 33.7773C128.703 32.6836 127.785 31.8828 126.848 31.375C125.754 30.7891 124.602 30.4766 123.391 30.4375C121.789 30.5156 120.539 30.6523 119.641 30.8477C118.742 31.043 118.039 31.3164 117.531 31.668C117.023 32.0195 116.633 32.4297 116.359 32.8984C116.125 33.3281 115.871 33.8164 115.598 34.3633C115.363 34.832 115.148 35.5547 114.953 36.5312C114.758 37.3516 114.562 38.4648 114.367 39.8711C114.211 41.2773 114.035 43.0938 113.84 45.3203C114.895 45.0078 115.734 44.7148 116.359 44.4414C117.023 44.168 117.551 43.9336 117.941 43.7383C118.371 43.5039 118.684 43.2891 118.879 43.0938C119.035 42.8594 119.27 42.4297 119.582 41.8047C119.816 41.2578 120.129 40.5156 120.52 39.5781C120.949 38.6406 121.457 37.3516 122.043 35.7109C122.121 37.5078 122.16 39.0117 122.16 40.2227C122.16 41.3945 122.18 42.3516 122.219 43.0938C122.219 43.9531 122.238 44.6367 122.277 45.1445V47.3711C122.277 48.1914 122.277 49.3047 122.277 50.7109C122.316 52.0781 122.375 53.8164 122.453 55.9258C121.984 54.4805 121.555 53.3477 121.164 52.5273C120.812 51.668 120.5 51.0234 120.227 50.5938C119.914 50.0859 119.641 49.7344 119.406 49.5391C119.133 49.4609 118.762 49.3828 118.293 49.3047C117.863 49.2656 117.316 49.2461 116.652 49.2461C116.027 49.2461 115.227 49.3438 114.25 49.5391C114.133 51.6875 114.113 53.4258 114.191 54.7539C114.309 56.043 114.465 57.0391 114.66 57.7422C114.855 58.5625 115.09 59.1484 115.363 59.5C115.715 59.8516 116.418 60.1445 117.473 60.3789C118.527 60.5742 119.719 60.6523 121.047 60.6133C122.414 60.5352 123.801 60.3008 125.207 59.9102C126.613 59.5195 127.863 58.875 128.957 57.9766C129.777 57.2344 130.656 56.2969 131.594 55.1641C132.375 54.1875 133.234 52.957 134.172 51.4727C135.148 49.9883 136.105 48.1914 137.043 46.082C136.887 47.8398 136.77 49.3047 136.691 50.4766C136.652 51.6094 136.594 52.5273 136.516 53.2305C136.438 54.0508 136.379 54.6758 136.34 55.1055C136.34 55.5742 136.281 56.2383 136.164 57.0977C136.086 57.8398 135.949 58.8555 135.754 60.1445C135.598 61.3945 135.383 62.9961 135.109 64.9492C133.273 64.9883 131.535 65.0273 129.895 65.0664C128.254 65.0664 126.809 65.0859 125.559 65.125C124.074 65.1641 122.707 65.2031 121.457 65.2422C120.168 65.2422 118.742 65.3008 117.18 65.418C115.812 65.4961 114.191 65.6133 112.316 65.7695C110.48 65.9258 108.449 66.1406 106.223 66.4141C106.418 63.7578 106.555 61.2578 106.633 58.9141C106.75 56.5312 106.828 54.4414 106.867 52.6445C106.906 50.5352 106.906 48.582 106.867 46.7852C107.062 42.293 106.984 38.6602 106.633 35.8867C106.281 33.1133 105.871 31.3359 105.402 30.5547C105.168 30.2813 104.836 29.9492 104.406 29.5586C104.055 29.2461 103.566 28.875 102.941 28.4453C102.316 28.0156 101.535 27.5273 100.598 26.9805Z" fill="white"/>
<path d="M6.8125 102H2.125V86H7.09375C8.61979 86 9.92448 86.3177 11.0078 86.9531C12.0964 87.5885 12.9297 88.5 13.5078 89.6875C14.0859 90.875 14.375 92.2995 14.375 93.9609C14.375 95.638 14.0781 97.0781 13.4844 98.2812C12.8958 99.4792 12.0365 100.398 10.9063 101.039C9.78125 101.68 8.41667 102 6.8125 102ZM3.58594 100.687H6.72656C8.10156 100.687 9.2526 100.417 10.1797 99.875C11.1068 99.3333 11.8021 98.5599 12.2656 97.5547C12.7292 96.5495 12.9609 95.3516 12.9609 93.9609C12.9557 92.5807 12.7266 91.3932 12.2734 90.3984C11.8255 89.4036 11.1589 88.6406 10.2734 88.1094C9.39323 87.5781 8.30469 87.3125 7.00781 87.3125H3.58594V100.687ZM22.291 102.25C21.2546 102.25 20.3379 101.987 19.541 101.461C18.7493 100.935 18.1296 100.208 17.6816 99.2812C17.2337 98.349 17.0098 97.2734 17.0098 96.0547C17.0098 94.8255 17.2337 93.7448 17.6816 92.8125C18.1296 91.875 18.7493 91.1458 19.541 90.625C20.3379 90.099 21.2546 89.8359 22.291 89.8359C23.3275 89.8359 24.2415 90.099 25.0332 90.625C25.8249 91.151 26.4447 91.8802 26.8926 92.8125C27.3457 93.7448 27.5723 94.8255 27.5723 96.0547C27.5723 97.2734 27.3483 98.349 26.9004 99.2812C26.4525 100.208 25.8301 100.935 25.0332 101.461C24.2415 101.987 23.3275 102.25 22.291 102.25ZM22.291 100.977C23.1243 100.977 23.8301 100.753 24.4082 100.305C24.9863 99.8568 25.4238 99.2604 25.7207 98.5156C26.0228 97.7708 26.1738 96.9505 26.1738 96.0547C26.1738 95.1589 26.0228 94.3359 25.7207 93.5859C25.4238 92.8359 24.9863 92.2344 24.4082 91.7812C23.8301 91.3281 23.1243 91.1016 22.291 91.1016C21.4629 91.1016 20.7572 91.3281 20.1738 91.7812C19.5957 92.2344 19.1556 92.8359 18.8535 93.5859C18.5566 94.3359 18.4082 95.1589 18.4082 96.0547C18.4082 96.9505 18.5566 97.7708 18.8535 98.5156C19.1556 99.2604 19.5957 99.8568 20.1738 100.305C20.752 100.753 21.4577 100.977 22.291 100.977ZM32.0156 86V102H30.625V86H32.0156ZM40.3828 102.25C39.3099 102.25 38.375 101.982 37.5781 101.445C36.7865 100.909 36.1719 100.174 35.7344 99.2422C35.2969 98.3099 35.0781 97.2474 35.0781 96.0547C35.0781 94.8516 35.2995 93.7812 35.7422 92.8437C36.1901 91.9062 36.8099 91.1719 37.6016 90.6406C38.3932 90.1042 39.3125 89.8359 40.3594 89.8359C41.1615 89.8359 41.888 89.9922 42.5391 90.3047C43.1901 90.612 43.7266 91.0469 44.1484 91.6094C44.5755 92.1667 44.8438 92.8177 44.9531 93.5625H43.5469C43.401 92.8854 43.0495 92.3073 42.4922 91.8281C41.9401 91.3437 41.237 91.1016 40.3828 91.1016C39.6172 91.1016 38.9401 91.3099 38.3516 91.7266C37.763 92.138 37.3021 92.7135 36.9688 93.4531C36.6406 94.1875 36.4766 95.0391 36.4766 96.0078C36.4766 96.9818 36.638 97.8437 36.9609 98.5937C37.2839 99.3385 37.737 99.9219 38.3203 100.344C38.9089 100.766 39.5964 100.977 40.3828 100.977C40.9141 100.977 41.3984 100.878 41.8359 100.68C42.2786 100.477 42.6484 100.19 42.9453 99.8203C43.2474 99.4505 43.4505 99.0104 43.5547 98.5H44.9609C44.8568 99.224 44.599 99.8698 44.1875 100.438C43.7813 101 43.2526 101.443 42.6016 101.766C41.9557 102.089 41.2161 102.25 40.3828 102.25ZM52.793 102.25C51.6732 102.25 50.7044 101.99 49.8867 101.469C49.069 100.943 48.4362 100.216 47.9883 99.2891C47.5456 98.3568 47.3242 97.2839 47.3242 96.0703C47.3242 94.862 47.5456 93.7891 47.9883 92.8516C48.4362 91.9089 49.0534 91.1719 49.8398 90.6406C50.6315 90.1042 51.5456 89.8359 52.582 89.8359C53.2331 89.8359 53.8607 89.9557 54.4648 90.1953C55.069 90.4297 55.6107 90.7917 56.0898 91.2812C56.5742 91.7656 56.957 92.3776 57.2383 93.1172C57.5195 93.8516 57.6602 94.7214 57.6602 95.7266V96.4141H48.2852V95.1875H56.2383C56.2383 94.4167 56.082 93.724 55.7695 93.1094C55.4622 92.4896 55.0326 92 54.4805 91.6406C53.9336 91.2812 53.3008 91.1016 52.582 91.1016C51.8216 91.1016 51.1523 91.3047 50.5742 91.7109C49.9961 92.1172 49.543 92.6536 49.2148 93.3203C48.8919 93.987 48.7279 94.7161 48.7227 95.5078V96.2422C48.7227 97.1953 48.8867 98.0286 49.2148 98.7422C49.5482 99.4505 50.0195 100 50.6289 100.391C51.2383 100.781 51.9596 100.977 52.793 100.977C53.3607 100.977 53.8581 100.888 54.2852 100.711C54.7174 100.534 55.0794 100.297 55.3711 100C55.668 99.6979 55.8919 99.3672 56.043 99.0078L57.3633 99.4375C57.181 99.9427 56.8815 100.409 56.4648 100.836C56.0534 101.263 55.5378 101.607 54.918 101.867C54.3034 102.122 53.5951 102.25 52.793 102.25ZM66.2324 87.3125V86H77.834V87.3125H72.7637V102H71.3027V87.3125H66.2324ZM83.9453 102.25C82.8255 102.25 81.8568 101.99 81.0391 101.469C80.2214 100.943 79.5885 100.216 79.1406 99.2891C78.6979 98.3568 78.4766 97.2839 78.4766 96.0703C78.4766 94.862 78.6979 93.7891 79.1406 92.8516C79.5885 91.9089 80.2057 91.1719 80.9922 90.6406C81.7839 90.1042 82.6979 89.8359 83.7344 89.8359C84.3854 89.8359 85.013 89.9557 85.6172 90.1953C86.2214 90.4297 86.763 90.7917 87.2422 91.2812C87.7266 91.7656 88.1094 92.3776 88.3906 93.1172C88.6719 93.8516 88.8125 94.7214 88.8125 95.7266V96.4141H79.4375V95.1875H87.3906C87.3906 94.4167 87.2344 93.724 86.9219 93.1094C86.6146 92.4896 86.1849 92 85.6328 91.6406C85.0859 91.2812 84.4531 91.1016 83.7344 91.1016C82.974 91.1016 82.3047 91.3047 81.7266 91.7109C81.1484 92.1172 80.6953 92.6536 80.3672 93.3203C80.0443 93.987 79.8802 94.7161 79.875 95.5078V96.2422C79.875 97.1953 80.0391 98.0286 80.3672 98.7422C80.7005 99.4505 81.1719 100 81.7813 100.391C82.3906 100.781 83.112 100.977 83.9453 100.977C84.513 100.977 85.0104 100.888 85.4375 100.711C85.8698 100.534 86.2318 100.297 86.5234 100C86.8203 99.6979 87.0443 99.3672 87.1953 99.0078L88.5156 99.4375C88.3333 99.9427 88.0339 100.409 87.6172 100.836C87.2057 101.263 86.6901 101.607 86.0703 101.867C85.4557 102.122 84.7474 102.25 83.9453 102.25ZM91.877 102V90H93.2285V91.8437H93.3301C93.5697 91.2396 93.9863 90.7526 94.5801 90.3828C95.179 90.0078 95.8561 89.8203 96.6113 89.8203C96.7259 89.8203 96.8535 89.8229 96.9941 89.8281C97.1348 89.8333 97.252 89.8385 97.3457 89.8438V91.2578C97.2832 91.2474 97.1738 91.2318 97.0176 91.2109C96.8613 91.1901 96.6921 91.1797 96.5098 91.1797C95.8848 91.1797 95.3275 91.3125 94.8379 91.5781C94.3535 91.8385 93.9707 92.2005 93.6895 92.6641C93.4082 93.1276 93.2676 93.6562 93.2676 94.25V102H91.877ZM99.7188 102V90H101.07V91.8437H101.172C101.411 91.2396 101.828 90.7526 102.422 90.3828C103.021 90.0078 103.698 89.8203 104.453 89.8203C104.568 89.8203 104.695 89.8229 104.836 89.8281C104.977 89.8333 105.094 89.8385 105.188 89.8438V91.2578C105.125 91.2474 105.016 91.2318 104.859 91.2109C104.703 91.1901 104.534 91.1797 104.352 91.1797C103.727 91.1797 103.169 91.3125 102.68 91.5781C102.195 91.8385 101.813 92.2005 101.531 92.6641C101.25 93.1276 101.109 93.6562 101.109 94.25V102H99.7188ZM110.912 102.273C110.188 102.273 109.527 102.133 108.928 101.852C108.329 101.565 107.852 101.154 107.498 100.617C107.144 100.076 106.967 99.4193 106.967 98.6484C106.967 98.0547 107.079 97.5547 107.303 97.1484C107.527 96.7422 107.844 96.4089 108.256 96.1484C108.667 95.888 109.154 95.6823 109.717 95.5312C110.279 95.3802 110.899 95.263 111.576 95.1797C112.248 95.0964 112.816 95.0234 113.279 94.9609C113.748 94.8984 114.105 94.7995 114.35 94.6641C114.594 94.5286 114.717 94.3099 114.717 94.0078V93.7266C114.717 92.9089 114.472 92.2656 113.982 91.7969C113.498 91.3229 112.8 91.0859 111.889 91.0859C111.024 91.0859 110.318 91.276 109.771 91.6562C109.23 92.0365 108.85 92.4844 108.631 93L107.311 92.5234C107.581 91.8672 107.956 91.3437 108.436 90.9531C108.915 90.5573 109.451 90.2734 110.045 90.1016C110.639 89.9245 111.24 89.8359 111.85 89.8359C112.308 89.8359 112.785 89.8958 113.279 90.0156C113.779 90.1354 114.243 90.3437 114.67 90.6406C115.097 90.9323 115.443 91.3411 115.709 91.8672C115.975 92.388 116.107 93.0495 116.107 93.8516V102H114.717V100.102H114.631C114.464 100.456 114.217 100.799 113.889 101.133C113.561 101.466 113.149 101.74 112.654 101.953C112.16 102.167 111.579 102.273 110.912 102.273ZM111.1 101C111.839 101 112.48 100.836 113.021 100.508C113.563 100.18 113.98 99.7448 114.271 99.2031C114.568 98.6562 114.717 98.0547 114.717 97.3984V95.6641C114.613 95.763 114.438 95.8516 114.193 95.9297C113.954 96.0078 113.675 96.0781 113.357 96.1406C113.045 96.1979 112.732 96.2474 112.42 96.2891C112.107 96.3307 111.826 96.3672 111.576 96.3984C110.899 96.4818 110.321 96.612 109.842 96.7891C109.363 96.9661 108.995 97.2109 108.74 97.5234C108.485 97.8307 108.357 98.2266 108.357 98.7109C108.357 99.4401 108.618 100.005 109.139 100.406C109.66 100.802 110.313 101 111.1 101ZM126.283 102V86H135.564V87.3125H127.744V93.3359H135.072V94.6484H127.744V100.687H135.721V102H126.283ZM139.916 90L143.01 95.1172L146.104 90H147.721L143.861 96L147.721 102H146.104L143.01 97.0469L139.916 102H138.307L142.119 96L138.307 90H139.916ZM150.637 106.5V90H151.988V92.2891H152.152C152.319 91.9297 152.548 91.5625 152.84 91.1875C153.132 90.8073 153.517 90.487 153.996 90.2266C154.48 89.9661 155.09 89.8359 155.824 89.8359C156.814 89.8359 157.678 90.0964 158.418 90.6172C159.163 91.1328 159.741 91.8568 160.152 92.7891C160.569 93.7161 160.777 94.7969 160.777 96.0313C160.777 97.2708 160.569 98.3568 160.152 99.2891C159.741 100.221 159.163 100.948 158.418 101.469C157.678 101.99 156.819 102.25 155.84 102.25C155.116 102.25 154.509 102.12 154.02 101.859C153.535 101.599 153.142 101.279 152.84 100.898C152.543 100.513 152.314 100.138 152.152 99.7734H152.027V106.5H150.637ZM152.012 96.0078C152.012 96.9766 152.155 97.8359 152.441 98.5859C152.733 99.3307 153.15 99.9167 153.691 100.344C154.238 100.766 154.9 100.977 155.676 100.977C156.473 100.977 157.145 100.758 157.691 100.32C158.243 99.8776 158.663 99.2812 158.949 98.5313C159.241 97.7812 159.387 96.9401 159.387 96.0078C159.387 95.0859 159.243 94.2552 158.957 93.5156C158.676 92.776 158.259 92.1901 157.707 91.7578C157.155 91.3203 156.478 91.1016 155.676 91.1016C154.895 91.1016 154.23 91.3125 153.684 91.7344C153.137 92.151 152.72 92.7292 152.434 93.4687C152.152 94.2031 152.012 95.0495 152.012 96.0078ZM168.68 102.25C167.56 102.25 166.591 101.99 165.773 101.469C164.956 100.943 164.323 100.216 163.875 99.2891C163.432 98.3568 163.211 97.2839 163.211 96.0703C163.211 94.862 163.432 93.7891 163.875 92.8516C164.323 91.9089 164.94 91.1719 165.727 90.6406C166.518 90.1042 167.432 89.8359 168.469 89.8359C169.12 89.8359 169.747 89.9557 170.352 90.1953C170.956 90.4297 171.497 90.7917 171.977 91.2812C172.461 91.7656 172.844 92.3776 173.125 93.1172C173.406 93.8516 173.547 94.7214 173.547 95.7266V96.4141H164.172V95.1875H172.125C172.125 94.4167 171.969 93.724 171.656 93.1094C171.349 92.4896 170.919 92 170.367 91.6406C169.82 91.2812 169.188 91.1016 168.469 91.1016C167.708 91.1016 167.039 91.3047 166.461 91.7109C165.883 92.1172 165.43 92.6536 165.102 93.3203C164.779 93.987 164.615 94.7161 164.609 95.5078V96.2422C164.609 97.1953 164.773 98.0286 165.102 98.7422C165.435 99.4505 165.906 100 166.516 100.391C167.125 100.781 167.846 100.977 168.68 100.977C169.247 100.977 169.745 100.888 170.172 100.711C170.604 100.534 170.966 100.297 171.258 100C171.555 99.6979 171.779 99.3672 171.93 99.0078L173.25 99.4375C173.068 99.9427 172.768 100.409 172.352 100.836C171.94 101.263 171.424 101.607 170.805 101.867C170.19 102.122 169.482 102.25 168.68 102.25ZM180.932 102.25C179.947 102.25 179.085 101.99 178.346 101.469C177.606 100.948 177.028 100.221 176.611 99.2891C176.2 98.3568 175.994 97.2708 175.994 96.0313C175.994 94.7969 176.2 93.7161 176.611 92.7891C177.028 91.8568 177.609 91.1328 178.354 90.6172C179.098 90.0964 179.965 89.8359 180.955 89.8359C181.684 89.8359 182.291 89.9661 182.775 90.2266C183.26 90.4818 183.648 90.7995 183.939 91.1797C184.231 91.5599 184.458 91.9297 184.619 92.2891H184.744V86H186.143V102H184.783V99.7734H184.619C184.458 100.138 184.229 100.513 183.932 100.898C183.635 101.279 183.242 101.599 182.752 101.859C182.268 102.12 181.661 102.25 180.932 102.25ZM181.096 100.977C181.872 100.977 182.533 100.766 183.08 100.344C183.627 99.9167 184.044 99.3307 184.33 98.5859C184.622 97.8359 184.768 96.9766 184.768 96.0078C184.768 95.0495 184.624 94.2031 184.338 93.4687C184.051 92.7292 183.635 92.151 183.088 91.7344C182.541 91.3125 181.877 91.1016 181.096 91.1016C180.294 91.1016 179.617 91.3203 179.064 91.7578C178.518 92.1901 178.101 92.776 177.814 93.5156C177.533 94.2552 177.393 95.0859 177.393 96.0078C177.393 96.9401 177.536 97.7812 177.822 98.5313C178.109 99.2812 178.525 99.8776 179.072 100.32C179.624 100.758 180.299 100.977 181.096 100.977ZM190.119 102V90H191.518V102H190.119ZM190.83 87.9375C190.544 87.9375 190.299 87.8411 190.096 87.6484C189.893 87.4505 189.791 87.2135 189.791 86.9375C189.791 86.6615 189.893 86.4271 190.096 86.2344C190.299 86.0365 190.544 85.9375 190.83 85.9375C191.117 85.9375 191.361 86.0365 191.564 86.2344C191.768 86.4271 191.869 86.6615 191.869 86.9375C191.869 87.2135 191.768 87.4505 191.564 87.6484C191.361 87.8411 191.117 87.9375 190.83 87.9375ZM199.922 90V91.2109H194.195V90H199.922ZM195.984 87.125H197.383V98.8672C197.383 99.3672 197.469 99.7604 197.641 100.047C197.813 100.328 198.036 100.529 198.313 100.648C198.589 100.763 198.883 100.82 199.195 100.82C199.378 100.82 199.534 100.81 199.664 100.789C199.794 100.763 199.909 100.737 200.008 100.711L200.305 101.969C200.169 102.021 200.003 102.068 199.805 102.109C199.607 102.156 199.362 102.18 199.07 102.18C198.56 102.18 198.068 102.068 197.594 101.844C197.125 101.62 196.74 101.286 196.438 100.844C196.135 100.401 195.984 99.8516 195.984 99.1953V87.125ZM203.096 102V90H204.494V102H203.096ZM203.807 87.9375C203.52 87.9375 203.275 87.8411 203.072 87.6484C202.869 87.4505 202.768 87.2135 202.768 86.9375C202.768 86.6615 202.869 86.4271 203.072 86.2344C203.275 86.0365 203.52 85.9375 203.807 85.9375C204.093 85.9375 204.338 86.0365 204.541 86.2344C204.744 86.4271 204.846 86.6615 204.846 86.9375C204.846 87.2135 204.744 87.4505 204.541 87.6484C204.338 87.8411 204.093 87.9375 203.807 87.9375ZM212.836 102.25C211.799 102.25 210.883 101.987 210.086 101.461C209.294 100.935 208.674 100.208 208.227 99.2812C207.779 98.349 207.555 97.2734 207.555 96.0547C207.555 94.8255 207.779 93.7448 208.227 92.8125C208.674 91.875 209.294 91.1458 210.086 90.625C210.883 90.099 211.799 89.8359 212.836 89.8359C213.872 89.8359 214.786 90.099 215.578 90.625C216.37 91.151 216.99 91.8802 217.438 92.8125C217.891 93.7448 218.117 94.8255 218.117 96.0547C218.117 97.2734 217.893 98.349 217.445 99.2812C216.997 100.208 216.375 100.935 215.578 101.461C214.786 101.987 213.872 102.25 212.836 102.25ZM212.836 100.977C213.669 100.977 214.375 100.753 214.953 100.305C215.531 99.8568 215.969 99.2604 216.266 98.5156C216.568 97.7708 216.719 96.9505 216.719 96.0547C216.719 95.1589 216.568 94.3359 216.266 93.5859C215.969 92.8359 215.531 92.2344 214.953 91.7812C214.375 91.3281 213.669 91.1016 212.836 91.1016C212.008 91.1016 211.302 91.3281 210.719 91.7812C210.141 92.2344 209.701 92.8359 209.398 93.5859C209.102 94.3359 208.953 95.1589 208.953 96.0547C208.953 96.9505 209.102 97.7708 209.398 98.5156C209.701 99.2604 210.141 99.8568 210.719 100.305C211.297 100.753 212.003 100.977 212.836 100.977ZM222.561 94.5V102H221.17V90H222.521V91.8828H222.646C222.928 91.2682 223.365 90.776 223.959 90.4063C224.558 90.0313 225.298 89.8438 226.178 89.8438C226.985 89.8438 227.693 90.013 228.303 90.3516C228.917 90.6849 229.394 91.1771 229.732 91.8281C230.076 92.4792 230.248 93.2786 230.248 94.2266V102H228.857V94.3125C228.857 93.3281 228.581 92.5495 228.029 91.9766C227.482 91.4036 226.748 91.1172 225.826 91.1172C225.196 91.1172 224.636 91.2526 224.146 91.5234C223.657 91.7943 223.269 92.1849 222.982 92.6953C222.701 93.2005 222.561 93.8021 222.561 94.5ZM241.973 92.6328L240.699 92.9922C240.574 92.6328 240.397 92.3073 240.168 92.0156C239.939 91.724 239.639 91.4922 239.27 91.3203C238.905 91.1484 238.452 91.0625 237.91 91.0625C237.098 91.0625 236.431 91.2552 235.91 91.6406C235.389 92.026 235.129 92.5234 235.129 93.1328C235.129 93.6484 235.306 94.0677 235.66 94.3906C236.02 94.7083 236.572 94.9609 237.316 95.1484L239.129 95.5937C240.134 95.8385 240.887 96.2266 241.387 96.7578C241.892 97.2891 242.145 97.9557 242.145 98.7578C242.145 99.4349 241.957 100.036 241.582 100.562C241.207 101.089 240.684 101.503 240.012 101.805C239.345 102.102 238.572 102.25 237.691 102.25C236.52 102.25 235.553 101.987 234.793 101.461C234.033 100.93 233.546 100.164 233.332 99.1641L234.668 98.8359C234.84 99.5495 235.176 100.089 235.676 100.453C236.181 100.818 236.845 101 237.668 101C238.59 101 239.327 100.794 239.879 100.383C240.431 99.9661 240.707 99.4453 240.707 98.8203C240.707 98.3359 240.546 97.9297 240.223 97.6016C239.9 97.2682 239.41 97.0234 238.754 96.8672L236.793 96.3984C235.751 96.1484 234.98 95.7526 234.48 95.2109C233.98 94.6693 233.73 93.9974 233.73 93.1953C233.73 92.5339 233.91 91.9531 234.27 91.4531C234.629 90.9479 235.124 90.5521 235.754 90.2656C236.384 89.9792 237.103 89.8359 237.91 89.8359C239.009 89.8359 239.887 90.0859 240.543 90.5859C241.204 91.0807 241.681 91.763 241.973 92.6328Z" fill="white"/>
<path d="M132 14.5912C132 14.1902 131.83 13.8078 131.531 13.5407L129.87 12.0546L130.302 10.038C130.323 9.94031 130.334 9.84158 130.334 9.74292C130.334 9.32157 130.144 8.91591 129.808 8.64494C129.553 8.4395 129.239 8.33319 128.923 8.33319C128.726 8.33319 128.527 8.37499 128.341 8.45893L128.334 8.46272L123.172 10.9405C122.777 10.3109 122.279 9.75141 121.703 9.28741C120.555 8.35975 119.089 7.80371 117.5 7.80371C115.895 7.80371 114.416 8.37119 113.263 9.31449C112.697 9.77662 112.21 10.3308 111.82 10.9538L106.667 8.46323L106.659 8.45944C106.473 8.37499 106.274 8.33319 106.076 8.33319C105.76 8.33319 105.447 8.4395 105.192 8.64494H105.192C104.856 8.91591 104.666 9.32157 104.666 9.74292C104.666 9.84158 104.677 9.94031 104.698 10.039L105.13 12.0556L103.47 13.5407C103.171 13.8083 103 14.1907 103 14.5912C103 14.9921 103.171 15.3745 103.47 15.6417L105.13 17.1278L104.698 19.1444C104.677 19.2426 104.666 19.3422 104.666 19.4395C104.666 19.8618 104.856 20.267 105.192 20.5379C105.447 20.7429 105.761 20.8492 106.077 20.8492C106.274 20.8492 106.472 20.8084 106.658 20.7234L106.668 20.7191L111.91 18.1859C112.303 18.7799 112.786 19.3076 113.342 19.7484C114.483 20.6537 115.932 21.196 117.5 21.1955C119.023 21.196 120.434 20.6845 121.559 19.8257C122.153 19.3726 122.665 18.8203 123.079 18.1968L128.333 20.7196L128.341 20.7234C128.528 20.8074 128.726 20.8492 128.924 20.8492C129.239 20.8492 129.553 20.7429 129.808 20.5374C130.144 20.2665 130.334 19.8618 130.334 19.4395C130.334 19.3417 130.323 19.2421 130.302 19.1434L129.87 17.1278L131.531 15.6418C131.83 15.3745 132 14.9921 132 14.5912ZM128.256 16.602L128.843 19.3365L123.755 16.8929C123.821 16.7192 123.881 16.5427 123.933 16.3624C124.046 15.9729 123.821 15.5657 123.432 15.4538C123.043 15.3408 122.636 15.5652 122.524 15.9544C122.209 17.0428 121.549 17.9875 120.668 18.6589C119.788 19.3303 118.694 19.728 117.5 19.728C116.271 19.728 115.148 19.3061 114.254 18.5987C113.361 17.8907 112.706 16.8972 112.424 15.7603C112.327 15.3664 111.929 15.1268 111.535 15.2241C111.143 15.3209 110.902 15.719 111 16.1124C111.065 16.3747 111.146 16.6305 111.24 16.8801L106.157 19.336L106.743 16.602L104.497 14.5912L106.743 12.5808L106.157 9.84685L111.183 12.2753C111.089 12.5405 111.013 12.8119 110.953 13.0909C110.868 13.4875 111.12 13.8776 111.517 13.9621C111.913 14.0475 112.303 13.7946 112.388 13.3984C112.64 12.2203 113.291 11.1883 114.192 10.4505C115.095 9.71312 116.242 9.27184 117.5 9.27184C118.745 9.27184 119.883 9.70457 120.781 10.4291C121.679 11.1541 122.332 12.1696 122.598 13.3301C122.687 13.7249 123.081 13.9721 123.476 13.882C123.871 13.7923 124.118 13.3984 124.028 13.0033C123.97 12.7504 123.897 12.5032 123.811 12.2621L128.843 9.84651L128.256 12.5805L130.503 14.5914L128.256 16.602Z" fill="white"/>
</svg>
