<svg width="178" height="145" viewBox="0 0 178 145" fill="none" xmlns="http://www.w3.org/2000/svg">
<g clip-path="url(#clip0_261_107)">
<path d="M9.03125 61.1562C11.2188 61.4688 13.125 61.7188 14.75 61.9062C16.375 62.0938 17.7188 62.25 18.7812 62.375C20.0312 62.5 21.0938 62.5938 21.9688 62.6562C22.9688 62.7812 24.1875 62.7188 25.625 62.4688C27.125 62.2188 28.7188 61.9688 30.4062 61.7188C32.0938 61.4062 33.8438 61.1562 35.6562 60.9688C37.4688 60.7812 39.2188 60.7812 40.9062 60.9688C42.0312 61.0938 43.4688 61.3438 45.2188 61.7188C46.9688 62.0938 48.8125 62.6875 50.75 63.5C52.75 64.3125 54.75 65.375 56.75 66.6875C58.75 68 60.5625 69.6562 62.1875 71.6562C63.8125 73.6562 65.1562 76.0312 66.2188 78.7812C67.2812 81.5312 67.875 84.75 68 88.4375C68.1875 93.9375 67.6875 98.9375 66.5 103.438C65.3125 107.938 63.4688 111.781 60.9688 114.969C58.5312 118.156 55.4375 120.656 51.6875 122.469C47.9375 124.281 43.5625 125.281 38.5625 125.469C34.75 125.781 31 126.062 27.3125 126.312C25.75 126.438 24.0938 126.531 22.3438 126.594C20.6562 126.656 18.9688 126.719 17.2812 126.781C15.5938 126.781 13.9688 126.75 12.4062 126.688C10.8438 126.625 9.40625 126.531 8.09375 126.406C9.53125 125.719 10.6875 125.031 11.5625 124.344C12.5 123.656 13.2188 123.062 13.7188 122.562C14.2812 121.938 14.6875 121.375 14.9375 120.875C15.0625 120.188 15.25 118.844 15.5 116.844C15.6875 115.156 15.9375 112.75 16.25 109.625C16.5625 106.5 16.9375 102.25 17.375 96.875L17.9375 90.2188C18.25 86.0938 18.375 82.7188 18.3125 80.0938C18.3125 77.4688 18.25 75.4062 18.125 73.9062C17.9375 72.1562 17.6875 70.875 17.375 70.0625C17.125 69.375 16.6562 68.5625 15.9688 67.625C15.3438 66.875 14.4688 65.9688 13.3438 64.9062C12.2812 63.7812 10.8438 62.5312 9.03125 61.1562ZM28.8125 95.6562C28.9375 101.219 29.2188 105.5 29.6562 108.5C30.1562 111.438 30.6875 113.625 31.25 115.062C31.9375 116.688 32.6875 117.656 33.5 117.969C34.6875 117.969 36.0312 117.469 37.5312 116.469C39.0312 115.406 40.5 113.812 41.9375 111.688C43.4375 109.562 44.7812 106.906 45.9688 103.719C47.2188 100.531 48.125 96.8125 48.6875 92.5625C49.25 88.3125 49.0938 84.5625 48.2188 81.3125C47.3438 78.0625 46.1875 75.3438 44.75 73.1562C43.3125 70.9062 41.8438 69.2188 40.3438 68.0938C38.8438 66.9062 37.7188 66.3125 36.9688 66.3125C36.0938 66.3125 35.3125 66.5625 34.625 67.0625C33.9375 67.5 32.9688 68.5312 31.7188 70.1562C31.0938 71.0312 30.5312 72.2812 30.0312 73.9062C29.5938 75.3438 29.2188 77.25 28.9062 79.625C28.5938 82 28.5 85.0625 28.625 88.8125L28.8125 95.6562Z" fill="white"/>
<path d="M107.125 62.5625C111.312 63.0625 114.938 63.4375 118 63.6875C121.062 63.875 123.594 64.0312 125.594 64.1562C127.906 64.2812 129.844 64.3125 131.406 64.25C133.031 64.1875 135.25 64.0312 138.062 63.7812C140.438 63.5938 143.562 63.3438 147.438 63.0312C151.312 62.6562 156.156 62.1562 161.969 61.5312C162.031 62.9688 162.062 64.375 162.062 65.75C162.125 67.0625 162.188 68.2188 162.25 69.2188C162.312 70.4062 162.344 71.5 162.344 72.5C162.344 73.5625 162.281 74.9062 162.156 76.5312C162.031 77.9062 161.812 79.6562 161.5 81.7812C161.25 83.8438 160.844 86.3125 160.281 89.1875C159.406 85.8125 158.562 83.0938 157.75 81.0312C156.938 78.9062 156.188 77.2188 155.5 75.9688C154.75 74.5312 154 73.4375 153.25 72.6875C152.438 72.125 151.469 71.6562 150.344 71.2812C149.344 70.9688 148.062 70.7188 146.5 70.5312C145 70.3438 143.219 70.375 141.156 70.625C140.844 78.875 140.625 85.5625 140.5 90.6875C140.375 95.8125 140.281 99.8125 140.219 102.688C140.156 106.125 140.125 108.594 140.125 110.094C140.188 112.219 140.531 114.312 141.156 116.375C141.656 118.125 142.469 119.938 143.594 121.812C144.719 123.688 146.344 125.344 148.469 126.781H137.031C135.969 126.781 134.656 126.844 133.094 126.969C131.781 127.094 130.094 127.219 128.031 127.344C126.031 127.469 123.688 127.688 121 128C121.938 126.375 122.688 124.906 123.25 123.594C123.812 122.281 124.25 121.156 124.562 120.219C124.938 119.094 125.219 118.094 125.406 117.219C125.469 115.969 125.625 113.438 125.875 109.625C125.938 108.062 126 106.125 126.062 103.812C126.188 101.5 126.312 98.75 126.438 95.5625C126.625 92.375 126.781 88.7188 126.906 84.5938C127.094 80.4062 127.281 75.6875 127.469 70.4375C126.344 70.125 125.281 70.1562 124.281 70.5312C123.281 70.8438 122.406 71.25 121.656 71.75C120.781 72.375 119.938 73.125 119.125 74C118.312 75.0625 117.406 76.4375 116.406 78.125C115.531 79.5625 114.531 81.4688 113.406 83.8438C112.281 86.1562 111 89.0312 109.562 92.4688C109.25 88.8438 109.031 85.875 108.906 83.5625C108.781 81.1875 108.688 79.3438 108.625 78.0312C108.562 76.4688 108.531 75.3125 108.531 74.5625C108.531 73.875 108.469 72.9688 108.344 71.8438C108.219 70.9062 108.062 69.6875 107.875 68.1875C107.688 66.625 107.438 64.75 107.125 62.5625Z" fill="white"/>
<path d="M58.1562 48.9688C62.5312 49.0938 66.1562 49.1875 69.0312 49.25C71.9688 49.25 74.3438 49.25 76.1562 49.25H81.125H109.062C109.188 50.5 109.281 51.7188 109.344 52.9062C109.469 54.0312 109.531 55.0312 109.531 55.9062C109.531 56.9688 109.5 57.9375 109.438 58.8125C109.375 59.6875 109.281 60.625 109.156 61.625C109.031 62.5 108.906 63.4375 108.781 64.4375C108.656 65.4375 108.438 66.4688 108.125 67.5312C107.25 64.1562 106.062 61.5938 104.562 59.8438C103.125 58.0938 101.656 56.8125 100.156 56C98.4062 55.0625 96.5625 54.5625 94.625 54.5C92.0625 54.625 90.0625 54.8438 88.625 55.1562C87.1875 55.4688 86.0625 55.9062 85.25 56.4688C84.4375 57.0312 83.8125 57.6875 83.375 58.4375C83 59.125 82.5938 59.9062 82.1562 60.7812C81.7812 61.5312 81.4375 62.6875 81.125 64.25C80.8125 65.5625 80.5 67.3438 80.1875 69.5938C79.9375 71.8438 79.6562 74.75 79.3438 78.3125C81.0312 77.8125 82.375 77.3438 83.375 76.9062C84.4375 76.4688 85.2812 76.0938 85.9062 75.7812C86.5938 75.4062 87.0938 75.0625 87.4062 74.75C87.6562 74.375 88.0312 73.6875 88.5312 72.6875C88.9062 71.8125 89.4062 70.625 90.0312 69.125C90.7188 67.625 91.5312 65.5625 92.4688 62.9375C92.5938 65.8125 92.6562 68.2188 92.6562 70.1562C92.6562 72.0312 92.6875 73.5625 92.75 74.75C92.75 76.125 92.7812 77.2188 92.8438 78.0312V81.5938C92.8438 82.9062 92.8438 84.6875 92.8438 86.9375C92.9062 89.125 93 91.9062 93.125 95.2812C92.375 92.9688 91.6875 91.1562 91.0625 89.8438C90.5 88.4688 90 87.4375 89.5625 86.75C89.0625 85.9375 88.625 85.375 88.25 85.0625C87.8125 84.9375 87.2188 84.8125 86.4688 84.6875C85.7812 84.625 84.9062 84.5938 83.8438 84.5938C82.8438 84.5938 81.5625 84.75 80 85.0625C79.8125 88.5 79.7812 91.2812 79.9062 93.4062C80.0938 95.4688 80.3438 97.0625 80.6562 98.1875C80.9688 99.5 81.3438 100.438 81.7812 101C82.3438 101.562 83.4688 102.031 85.1562 102.406C86.8438 102.719 88.75 102.844 90.875 102.781C93.0625 102.656 95.2812 102.281 97.5312 101.656C99.7812 101.031 101.781 100 103.531 98.5625C104.844 97.375 106.25 95.875 107.75 94.0625C109 92.5 110.375 90.5312 111.875 88.1562C113.438 85.7812 114.969 82.9062 116.469 79.5312C116.219 82.3438 116.031 84.6875 115.906 86.5625C115.844 88.375 115.75 89.8438 115.625 90.9688C115.5 92.2812 115.406 93.2812 115.344 93.9688C115.344 94.7188 115.25 95.7812 115.062 97.1562C114.938 98.3438 114.719 99.9688 114.406 102.031C114.156 104.031 113.812 106.594 113.375 109.719C110.438 109.781 107.656 109.844 105.031 109.906C102.406 109.906 100.094 109.938 98.0938 110C95.7188 110.062 93.5312 110.125 91.5312 110.188C89.4688 110.188 87.1875 110.281 84.6875 110.469C82.5 110.594 79.9062 110.781 76.9062 111.031C73.9688 111.281 70.7188 111.625 67.1562 112.062C67.4688 107.812 67.6875 103.812 67.8125 100.062C68 96.25 68.125 92.9062 68.1875 90.0312C68.25 86.6562 68.25 83.5312 68.1875 80.6562C68.5 73.4688 68.375 67.6562 67.8125 63.2188C67.25 58.7812 66.5938 55.9375 65.8438 54.6875C65.4688 54.25 64.9375 53.7188 64.25 53.0938C63.6875 52.5938 62.9062 52 61.9062 51.3125C60.9062 50.625 59.6562 49.8438 58.1562 48.9688Z" fill="white"/>
<path d="M110 22.6417C110 22.0195 109.759 21.426 109.337 21.0116L106.988 18.7056L107.599 15.5764C107.629 15.4248 107.644 15.2716 107.644 15.1185C107.644 14.4647 107.376 13.8352 106.901 13.4147C106.54 13.0959 106.096 12.931 105.65 12.931C105.371 12.931 105.09 12.9958 104.827 13.1261L104.816 13.132L97.5193 16.9768C96.9605 15.9998 96.2568 15.1317 95.4424 14.4117C93.8197 12.9722 91.7461 12.1094 89.5002 12.1094C87.2315 12.1094 85.1392 12.99 83.5098 14.4537C82.7102 15.1708 82.0212 16.0308 81.4698 16.9975L74.1846 13.1328L74.1726 13.1269C73.9102 12.9958 73.6285 12.931 73.3494 12.931C72.9027 12.931 72.4599 13.0959 72.099 13.4147H72.0997C71.6234 13.8352 71.3557 14.4647 71.3557 15.1185C71.3557 15.2716 71.3711 15.4248 71.3999 15.578L72.0117 18.7071L69.6641 21.0116C69.2414 21.4268 69 22.0202 69 22.6417C69 23.2637 69.2414 23.8572 69.6641 24.2718L72.0113 26.5778L71.4002 29.7069C71.3714 29.8593 71.356 30.0139 71.356 30.1648C71.356 30.8201 71.6236 31.4489 72.0993 31.8694C72.4602 32.1875 72.9029 32.3523 73.3497 32.3523C73.6288 32.3523 73.9092 32.2891 74.1722 32.1572L74.1863 32.1505L81.5975 28.2196C82.1523 29.1414 82.8358 29.9602 83.622 30.6442C85.234 32.049 87.2827 32.8906 89.5004 32.8898C91.6531 32.8905 93.6481 32.0968 95.2386 30.7642C96.0779 30.061 96.8023 29.204 97.3879 28.2366L104.815 32.1513L104.827 32.1572C105.091 32.2876 105.371 32.3523 105.65 32.3523C106.097 32.3523 106.54 32.1875 106.901 31.8686C107.376 31.4482 107.644 30.8201 107.644 30.1648C107.644 30.0132 107.629 29.8586 107.599 29.7055L106.988 26.5778L109.337 24.2719C109.759 23.8572 110 23.2637 110 22.6417ZM104.707 25.762L105.536 30.005L98.3431 26.2133C98.437 25.9438 98.5215 25.6699 98.5954 25.3901C98.7543 24.7857 98.437 24.1539 97.8869 23.9801C97.3368 23.8049 96.7607 24.1531 96.6023 24.7569C96.1575 26.4459 95.2238 27.9118 93.9793 28.9537C92.7343 29.9955 91.1881 30.6125 89.5002 30.6125C87.7622 30.6125 86.1743 29.9579 84.9105 28.8602C83.6487 27.7616 82.7216 26.22 82.3238 24.4558C82.1863 23.8446 81.6241 23.4728 81.0674 23.6238C80.512 23.774 80.1718 24.3917 80.31 25.0021C80.4019 25.4092 80.5166 25.8062 80.6501 26.1934L73.4636 30.0043L74.292 25.762L71.1157 22.6417L74.292 19.5221L73.4636 15.2798L80.569 19.048C80.4368 19.4596 80.3281 19.8807 80.2435 20.3136C80.1234 20.9291 80.4804 21.5344 81.0412 21.6655C81.6006 21.798 82.152 21.4056 82.2721 20.7908C82.6283 18.9626 83.5488 17.3613 84.8233 16.2164C86.0999 15.0723 87.7219 14.3875 89.5002 14.3875C91.2604 14.3875 92.8684 15.059 94.1384 16.1833C95.4089 17.3083 96.3319 18.884 96.707 20.6849C96.8337 21.2975 97.3906 21.681 97.9493 21.5412C98.5074 21.402 98.8569 20.7909 98.7295 20.1776C98.6476 19.7852 98.5437 19.4017 98.4229 19.0276L105.536 15.2792L104.707 19.5216L107.884 22.6419L104.707 25.762Z" fill="white"/>
</g>
<defs>
<clipPath id="clip0_261_107">
<rect width="178" height="145" fill="white"/>
</clipPath>
</defs>
</svg>
